<svg width="346" height="223" viewBox="0 0 346 223" fill="none" xmlns="http://www.w3.org/2000/svg">
<path d="M3.51649 37.7V12.2454H19.3013V15.5515H7.35704V23.3072H18.1703V26.6009H7.35704V37.7H3.51649ZM30.5526 38.0852C28.6717 38.0852 27.0518 37.6834 25.6929 36.8796C24.3423 36.0676 23.2982 34.9283 22.5608 33.4617C21.8316 31.9868 21.467 30.2591 21.467 28.2788C21.467 26.3233 21.8316 24.5998 22.5608 23.1083C23.2982 21.6169 24.3257 20.4527 25.6432 19.6158C26.9689 18.7789 28.5184 18.3605 30.2916 18.3605C31.3688 18.3605 32.4128 18.5386 33.4237 18.8949C34.4346 19.2512 35.3419 19.8105 36.1457 20.5728C36.9494 21.3351 37.5833 22.3253 38.0473 23.5433C38.5113 24.7531 38.7433 26.2239 38.7433 27.9556V29.2731H23.5675V26.489H35.1016C35.1016 25.5113 34.9028 24.6454 34.505 23.8914C34.1073 23.129 33.548 22.5283 32.8271 22.0892C32.1145 21.65 31.2776 21.4304 30.3165 21.4304C29.2724 21.4304 28.361 21.6873 27.5821 22.201C26.8115 22.7065 26.2149 23.3693 25.7923 24.1897C25.378 25.0017 25.1709 25.8841 25.1709 26.837V29.0121C25.1709 30.2881 25.3946 31.3736 25.842 32.2685C26.2978 33.1634 26.9316 33.847 27.7437 34.3193C28.5557 34.7833 29.5044 35.0153 30.5899 35.0153C31.2942 35.0153 31.9364 34.9159 32.5164 34.717C33.0964 34.5098 33.5977 34.2033 34.0203 33.7973C34.4429 33.3912 34.766 32.8899 34.9898 32.2933L38.5072 32.9272C38.2254 33.963 37.72 34.8703 36.9908 35.6492C36.27 36.4198 35.3626 37.0205 34.2689 37.4514C33.1834 37.874 31.9447 38.0852 30.5526 38.0852ZM48.4224 38.1225C47.2126 38.1225 46.1189 37.8988 45.1411 37.4514C44.1634 36.9956 43.3886 36.3369 42.8169 35.4752C42.2535 34.6134 41.9717 33.557 41.9717 32.3058C41.9717 31.2286 42.1789 30.342 42.5932 29.646C43.0075 28.95 43.5668 28.3989 44.2711 27.9929C44.9754 27.5869 45.7626 27.2803 46.6326 27.0732C47.5026 26.866 48.3892 26.7086 49.2924 26.6009C50.4359 26.4683 51.3639 26.3606 52.0765 26.2777C52.7891 26.1866 53.307 26.0416 53.6301 25.8427C53.9533 25.6438 54.1149 25.3207 54.1149 24.8732V24.7862C54.1149 23.7008 53.8083 22.8598 53.1951 22.2632C52.5902 21.6666 51.6871 21.3683 50.4856 21.3683C49.2344 21.3683 48.2484 21.6459 47.5275 22.201C46.8149 22.7479 46.3219 23.3569 46.0485 24.0281L42.5559 23.2326C42.9702 22.0726 43.5751 21.1363 44.3705 20.4237C45.1743 19.7028 46.0982 19.1808 47.1422 18.8576C48.1862 18.5262 49.2841 18.3605 50.4359 18.3605C51.1982 18.3605 52.0061 18.4516 52.8595 18.6339C53.7213 18.8079 54.525 19.1311 55.2708 19.6034C56.0248 20.0757 56.6421 20.751 57.1227 21.6293C57.6033 22.4993 57.8436 23.6303 57.8436 25.0224V37.7H54.2143V35.0899H54.0651C53.8248 35.5705 53.4644 36.0428 52.9838 36.5068C52.5032 36.9708 51.8859 37.3561 51.1319 37.6627C50.3779 37.9692 49.4747 38.1225 48.4224 38.1225ZM49.2303 35.1396C50.2577 35.1396 51.136 34.9366 51.8652 34.5306C52.6027 34.1245 53.162 33.5942 53.5431 32.9397C53.9326 32.2768 54.1273 31.5683 54.1273 30.8143V28.3534C53.9947 28.4859 53.7378 28.6102 53.3567 28.7262C52.9838 28.8339 52.5571 28.9292 52.0765 29.0121C51.5959 29.0867 51.1278 29.1571 50.672 29.2234C50.2163 29.2814 49.8351 29.3311 49.5286 29.3725C48.8077 29.4637 48.1489 29.617 47.5524 29.8324C46.9641 30.0478 46.4918 30.3586 46.1355 30.7646C45.7874 31.1623 45.6134 31.6926 45.6134 32.3555C45.6134 33.2752 45.9532 33.9713 46.6326 34.4436C47.3121 34.9076 48.1779 35.1396 49.2303 35.1396ZM71.705 18.609V21.592H61.2771V18.609H71.705ZM64.0736 14.0352H67.7898V32.0945C67.7898 32.8154 67.8976 33.3581 68.113 33.7227C68.3284 34.079 68.606 34.3234 68.9457 34.456C69.2937 34.5803 69.6708 34.6424 70.0768 34.6424C70.3751 34.6424 70.6361 34.6217 70.8598 34.5803C71.0835 34.5388 71.2575 34.5057 71.3818 34.4808L72.053 37.5508C71.8375 37.6337 71.531 37.7165 71.1332 37.7994C70.7355 37.8905 70.2383 37.9402 69.6418 37.9485C68.664 37.9651 67.7526 37.7911 66.9074 37.4265C66.0622 37.0619 65.3786 36.4985 64.8566 35.7362C64.3346 34.9739 64.0736 34.0168 64.0736 32.8651V14.0352ZM87.9092 29.7827V18.609H91.6379V37.7H87.9838V34.3938H87.785C87.3458 35.413 86.6415 36.2623 85.672 36.9418C84.7109 37.6129 83.5135 37.9485 82.0801 37.9485C80.8537 37.9485 79.7683 37.6792 78.8237 37.1406C77.8873 36.5938 77.1499 35.7859 76.6113 34.717C76.081 33.6481 75.8159 32.3265 75.8159 30.7522V18.609H79.5321V30.3047C79.5321 31.6056 79.8926 32.6414 80.6134 33.412C81.3343 34.1826 82.2706 34.5678 83.4224 34.5678C84.1184 34.5678 84.8103 34.3938 85.498 34.0458C86.194 33.6978 86.7699 33.1717 87.2257 32.4674C87.6897 31.763 87.9175 30.8682 87.9092 29.7827ZM96.6313 37.7V18.609H100.223V21.6417H100.422C100.77 20.6142 101.383 19.8064 102.262 19.2181C103.148 18.6215 104.151 18.3232 105.269 18.3232C105.501 18.3232 105.775 18.3315 106.09 18.348C106.413 18.3646 106.666 18.3853 106.848 18.4102V21.9649C106.699 21.9234 106.434 21.8779 106.052 21.8281C105.671 21.7701 105.29 21.7411 104.909 21.7411C104.031 21.7411 103.248 21.9276 102.56 22.3004C101.88 22.665 101.342 23.1746 100.944 23.8292C100.546 24.4755 100.348 25.213 100.348 26.0416V37.7H96.6313ZM117.608 38.0852C115.727 38.0852 114.107 37.6834 112.749 36.8796C111.398 36.0676 110.354 34.9283 109.616 33.4617C108.887 31.9868 108.523 30.2591 108.523 28.2788C108.523 26.3233 108.887 24.5998 109.616 23.1083C110.354 21.6169 111.381 20.4527 112.699 19.6158C114.025 18.7789 115.574 18.3605 117.347 18.3605C118.424 18.3605 119.468 18.5386 120.479 18.8949C121.49 19.2512 122.398 19.8105 123.201 20.5728C124.005 21.3351 124.639 22.3253 125.103 23.5433C125.567 24.7531 125.799 26.2239 125.799 27.9556V29.2731H110.623V26.489H122.157C122.157 25.5113 121.958 24.6454 121.561 23.8914C121.163 23.129 120.604 22.5283 119.883 22.0892C119.17 21.65 118.333 21.4304 117.372 21.4304C116.328 21.4304 115.417 21.6873 114.638 22.201C113.867 22.7065 113.271 23.3693 112.848 24.1897C112.434 25.0017 112.227 25.8841 112.227 26.837V29.0121C112.227 30.2881 112.45 31.3736 112.898 32.2685C113.353 33.1634 113.987 33.847 114.799 34.3193C115.611 34.7833 116.56 35.0153 117.646 35.0153C118.35 35.0153 118.992 34.9159 119.572 34.717C120.152 34.5098 120.653 34.2033 121.076 33.7973C121.499 33.3912 121.822 32.8899 122.045 32.2933L125.563 32.9272C125.281 33.963 124.776 34.8703 124.046 35.6492C123.326 36.4198 122.418 37.0205 121.325 37.4514C120.239 37.874 119 38.0852 117.608 38.0852ZM137.069 38.0728C135.528 38.0728 134.152 37.6792 132.943 36.8921C131.741 36.0966 130.796 34.9656 130.109 33.499C129.429 32.0241 129.09 30.255 129.09 28.1918C129.09 26.1286 129.433 24.3637 130.121 22.897C130.817 21.4304 131.77 20.3077 132.98 19.5288C134.19 18.7499 135.561 18.3605 137.094 18.3605C138.279 18.3605 139.232 18.5593 139.952 18.9571C140.682 19.3465 141.245 19.8022 141.643 20.3242C142.049 20.8463 142.364 21.3061 142.587 21.7039H142.811V12.2454H146.527V37.7H142.898V34.7294H142.587C142.364 35.1354 142.041 35.5995 141.618 36.1215C141.204 36.6435 140.632 37.0992 139.903 37.4887C139.174 37.8781 138.229 38.0728 137.069 38.0728ZM137.889 34.9034C138.958 34.9034 139.861 34.6217 140.599 34.0583C141.345 33.4865 141.908 32.6952 142.289 31.6843C142.679 30.6734 142.873 29.4968 142.873 28.1545C142.873 26.8287 142.683 25.6687 142.302 24.6744C141.92 23.6801 141.361 22.9053 140.624 22.3502C139.886 21.795 138.975 21.5174 137.889 21.5174C136.771 21.5174 135.838 21.8074 135.093 22.3875C134.347 22.9675 133.784 23.7588 133.402 24.7614C133.03 25.764 132.843 26.895 132.843 28.1545C132.843 29.4305 133.034 30.5781 133.415 31.5973C133.796 32.6165 134.359 33.4244 135.105 34.021C135.859 34.6093 136.787 34.9034 137.889 34.9034ZM24.6582 69.5231H20.7803C20.6312 68.6945 20.3536 67.9653 19.9476 67.3356C19.5416 66.7059 19.0444 66.1714 18.4561 65.7323C17.8678 65.2931 17.2091 64.9617 16.4799 64.7379C15.759 64.5142 14.9926 64.4024 14.1806 64.4024C12.7139 64.4024 11.4006 64.7711 10.2406 65.5085C9.08882 66.246 8.17736 67.3273 7.50619 68.7525C6.84331 70.1777 6.51187 71.9178 6.51187 73.9727C6.51187 76.0442 6.84331 77.7925 7.50619 79.2177C8.17736 80.6429 9.09296 81.7201 10.253 82.4492C11.413 83.1784 12.7181 83.543 14.1681 83.543C14.9719 83.543 15.7342 83.4353 16.4551 83.2198C17.1842 82.9961 17.843 82.6688 18.4313 82.2379C19.0196 81.8071 19.5167 81.2809 19.9227 80.6595C20.337 80.0297 20.6229 79.3089 20.7803 78.4968L24.6582 78.5093C24.451 79.7604 24.0492 80.9122 23.4526 81.9645C22.8643 83.0085 22.1061 83.9117 21.1781 84.674C20.2583 85.4281 19.206 86.0122 18.0211 86.4265C16.8362 86.8408 15.5436 87.048 14.1433 87.048C11.9392 87.048 9.97542 86.5259 8.25193 85.4819C6.52845 84.4296 5.16954 82.9257 4.17523 80.9702C3.18919 79.0147 2.69618 76.6822 2.69618 73.9727C2.69618 71.2549 3.19334 68.9224 4.18766 66.9752C5.18197 65.0197 6.54088 63.5199 8.26436 62.4759C9.98785 61.4236 11.9475 60.8974 14.1433 60.8974C15.4939 60.8974 16.7534 61.0921 17.9217 61.4816C19.0983 61.8627 20.1547 62.4262 21.0911 63.1719C22.0274 63.9093 22.8021 64.8125 23.4153 65.8814C24.0284 66.942 24.4427 68.1559 24.6582 69.5231ZM34.5113 87.1225C33.3015 87.1225 32.2077 86.8988 31.23 86.4514C30.2523 85.9956 29.4775 85.3369 28.9058 84.4752C28.3423 83.6134 28.0606 82.557 28.0606 81.3058C28.0606 80.2286 28.2678 79.342 28.6821 78.646C29.0964 77.95 29.6557 77.3989 30.36 76.9929C31.0643 76.5869 31.8515 76.2803 32.7215 76.0732C33.5915 75.866 34.4781 75.7086 35.3813 75.6009C36.5247 75.4683 37.4528 75.3606 38.1654 75.2777C38.878 75.1866 39.3958 75.0416 39.719 74.8427C40.0421 74.6438 40.2037 74.3207 40.2037 73.8732V73.7862C40.2037 72.7008 39.8971 71.8598 39.284 71.2632C38.6791 70.6666 37.7759 70.3683 36.5745 70.3683C35.3233 70.3683 34.3372 70.6459 33.6164 71.201C32.9038 71.7479 32.4108 72.3569 32.1373 73.0281L28.6448 72.2326C29.0591 71.0726 29.664 70.1363 30.4594 69.4237C31.2631 68.7028 32.187 68.1808 33.2311 67.8576C34.2751 67.5262 35.373 67.3605 36.5247 67.3605C37.2871 67.3605 38.0949 67.4516 38.9484 67.6339C39.8101 67.8079 40.6139 68.1311 41.3596 68.6034C42.1136 69.0757 42.7309 69.751 43.2115 70.6293C43.6921 71.4993 43.9324 72.6303 43.9324 74.0224V86.7H40.3032V84.0899H40.154C39.9137 84.5705 39.5533 85.0428 39.0727 85.5068C38.5921 85.9708 37.9748 86.3561 37.2208 86.6627C36.4667 86.9692 35.5636 87.1225 34.5113 87.1225ZM35.3191 84.1396C36.3466 84.1396 37.2249 83.9366 37.9541 83.5306C38.6915 83.1245 39.2508 82.5942 39.632 81.9397C40.0214 81.2768 40.2162 80.5683 40.2162 79.8143V77.3534C40.0836 77.4859 39.8267 77.6102 39.4456 77.7262C39.0727 77.8339 38.646 77.9292 38.1654 78.0121C37.6848 78.0867 37.2166 78.1571 36.7609 78.2234C36.3052 78.2814 35.924 78.3311 35.6174 78.3725C34.8966 78.4637 34.2378 78.617 33.6412 78.8324C33.0529 79.0478 32.5806 79.3586 32.2243 79.7646C31.8763 80.1623 31.7023 80.6926 31.7023 81.3555C31.7023 82.2752 32.042 82.9713 32.7215 83.4436C33.4009 83.9076 34.2668 84.1396 35.3191 84.1396ZM57.7938 67.609V70.592H47.3659V67.609H57.7938ZM50.1624 63.0352H53.8787V81.0945C53.8787 81.8154 53.9864 82.3581 54.2019 82.7227C54.4173 83.079 54.6949 83.3234 55.0346 83.456C55.3826 83.5803 55.7596 83.6424 56.1656 83.6424C56.4639 83.6424 56.7249 83.6217 56.9487 83.5803C57.1724 83.5388 57.3464 83.5057 57.4707 83.4808L58.1418 86.5508C57.9264 86.6337 57.6198 86.7165 57.2221 86.7994C56.8244 86.8905 56.3272 86.9402 55.7306 86.9485C54.7529 86.9651 53.8414 86.7911 52.9962 86.4265C52.1511 86.0619 51.4675 85.4985 50.9455 84.7362C50.4235 83.9739 50.1624 83.0168 50.1624 81.8651V63.0352ZM69.9276 87.0852C68.0467 87.0852 66.4268 86.6834 65.0679 85.8796C63.7173 85.0676 62.6732 83.9283 61.9358 82.4617C61.2066 80.9868 60.842 79.2591 60.842 77.2788C60.842 75.3233 61.2066 73.5998 61.9358 72.1083C62.6732 70.6169 63.7007 69.4527 65.0182 68.6158C66.3439 67.7789 67.8934 67.3605 69.6666 67.3605C70.7438 67.3605 71.7878 67.5386 72.7987 67.8949C73.8096 68.2512 74.7169 68.8105 75.5207 69.5728C76.3244 70.3351 76.9583 71.3253 77.4223 72.5433C77.8863 73.7531 78.1183 75.2239 78.1183 76.9556V78.2731H62.9425V75.489H74.4766C74.4766 74.5113 74.2778 73.6454 73.88 72.8914C73.4823 72.129 72.923 71.5283 72.2021 71.0892C71.4895 70.65 70.6526 70.4304 69.6915 70.4304C68.6474 70.4304 67.736 70.6873 66.9571 71.201C66.1865 71.7065 65.5899 72.3693 65.1673 73.1897C64.753 74.0017 64.5459 74.8841 64.5459 75.837V78.0121C64.5459 79.2881 64.7696 80.3736 65.217 81.2685C65.6728 82.1634 66.3066 82.847 67.1187 83.3193C67.9307 83.7833 68.8794 84.0153 69.9649 84.0153C70.6692 84.0153 71.3114 83.9159 71.8914 83.717C72.4714 83.5098 72.9727 83.2033 73.3953 82.7973C73.8179 82.3912 74.141 81.8899 74.3648 81.2933L77.8822 81.9272C77.6004 82.963 77.095 83.8703 76.3658 84.6492C75.645 85.4198 74.7376 86.0205 73.6439 86.4514C72.5584 86.874 71.3197 87.0852 69.9276 87.0852ZM90.2459 94.2568C88.7296 94.2568 87.4245 94.0579 86.3308 93.6602C85.2453 93.2625 84.3587 92.7363 83.671 92.0817C82.9832 91.4271 82.4695 90.7104 82.1298 89.9315L85.324 88.614C85.5477 88.9786 85.846 89.3639 86.2189 89.7699C86.6001 90.1842 87.1138 90.5364 87.7601 90.8264C88.4147 91.1164 89.2557 91.2614 90.2832 91.2614C91.6918 91.2614 92.856 90.9175 93.7757 90.2298C94.6955 89.5503 95.1553 88.4649 95.1553 86.9734V83.2198H94.9192C94.6955 83.6259 94.3723 84.0774 93.9497 84.5746C93.5354 85.0718 92.9637 85.5026 92.2345 85.8672C91.5054 86.2318 90.5566 86.4141 89.3883 86.4141C87.8802 86.4141 86.5213 86.0619 85.3116 85.3576C84.1101 84.645 83.1572 83.5968 82.4529 82.2131C81.7569 80.821 81.4089 79.11 81.4089 77.0799C81.4089 75.0499 81.7528 73.3098 82.4405 71.8598C83.1365 70.4097 84.0894 69.2994 85.2992 68.5288C86.5089 67.7499 87.8802 67.3605 89.4132 67.3605C90.598 67.3605 91.5551 67.5593 92.2842 67.9571C93.0134 68.3465 93.581 68.8022 93.987 69.3242C94.4013 69.8463 94.7203 70.3061 94.944 70.7039H95.2175V67.609H98.8592V87.1225C98.8592 88.7632 98.478 90.1096 97.7157 91.162C96.9534 92.2143 95.9218 92.9932 94.6209 93.4986C93.3283 94.004 91.8699 94.2568 90.2459 94.2568ZM90.2086 83.3317C91.2775 83.3317 92.1807 83.0831 92.9181 82.586C93.6639 82.0805 94.2273 81.3596 94.6085 80.4233C94.9979 79.4787 95.1926 78.3477 95.1926 77.0302C95.1926 75.7459 95.002 74.6148 94.6209 73.6371C94.2397 72.6593 93.6804 71.897 92.943 71.3502C92.2055 70.795 91.2941 70.5174 90.2086 70.5174C89.09 70.5174 88.1578 70.8074 87.4121 71.3875C86.6663 71.9592 86.1029 72.7381 85.7217 73.7241C85.3489 74.7101 85.1624 75.8122 85.1624 77.0302C85.1624 78.2814 85.353 79.3793 85.7342 80.3239C86.1153 81.2685 86.6788 82.0059 87.4245 82.5362C88.1785 83.0665 89.1066 83.3317 90.2086 83.3317ZM111.885 87.0852C110.095 87.0852 108.533 86.6751 107.199 85.8548C105.865 85.0345 104.829 83.8869 104.092 82.412C103.354 80.937 102.986 79.2136 102.986 77.2415C102.986 75.2611 103.354 73.5294 104.092 72.0462C104.829 70.563 105.865 69.4112 107.199 68.5909C108.533 67.7706 110.095 67.3605 111.885 67.3605C113.675 67.3605 115.236 67.7706 116.57 68.5909C117.905 69.4112 118.94 70.563 119.678 72.0462C120.415 73.5294 120.784 75.2611 120.784 77.2415C120.784 79.2136 120.415 80.937 119.678 82.412C118.94 83.8869 117.905 85.0345 116.57 85.8548C115.236 86.6751 113.675 87.0852 111.885 87.0852ZM111.897 83.9656C113.057 83.9656 114.018 83.659 114.781 83.0458C115.543 82.4327 116.106 81.6165 116.471 80.5973C116.844 79.5781 117.03 78.4554 117.03 77.2291C117.03 76.011 116.844 74.8924 116.471 73.8732C116.106 72.8458 115.543 72.0213 114.781 71.3999C114.018 70.7784 113.057 70.4677 111.897 70.4677C110.729 70.4677 109.759 70.7784 108.989 71.3999C108.226 72.0213 107.659 72.8458 107.286 73.8732C106.921 74.8924 106.739 76.011 106.739 77.2291C106.739 78.4554 106.921 79.5781 107.286 80.5973C107.659 81.6165 108.226 82.4327 108.989 83.0458C109.759 83.659 110.729 83.9656 111.897 83.9656ZM124.932 86.7V67.609H128.524V70.6417H128.723C129.071 69.6142 129.684 68.8064 130.562 68.2181C131.449 67.6215 132.452 67.3232 133.57 67.3232C133.802 67.3232 134.076 67.3315 134.391 67.348C134.714 67.3646 134.966 67.3853 135.149 67.4102V70.9649C135 70.9234 134.734 70.8779 134.353 70.8281C133.972 70.7701 133.591 70.7411 133.21 70.7411C132.331 70.7411 131.548 70.9276 130.861 71.3004C130.181 71.665 129.643 72.1746 129.245 72.8292C128.847 73.4755 128.648 74.213 128.648 75.0416V86.7H124.932ZM138.365 86.7V67.609H142.081V86.7H138.365ZM140.241 64.6634C139.595 64.6634 139.04 64.4479 138.576 64.0171C138.12 63.5779 137.892 63.0559 137.892 62.451C137.892 61.8379 138.12 61.3158 138.576 60.885C139.04 60.4458 139.595 60.2262 140.241 60.2262C140.888 60.2262 141.439 60.4458 141.895 60.885C142.359 61.3158 142.591 61.8379 142.591 62.451C142.591 63.0559 142.359 63.5779 141.895 64.0171C141.439 64.4479 140.888 64.6634 140.241 64.6634ZM155.308 87.0852C153.428 87.0852 151.808 86.6834 150.449 85.8796C149.098 85.0676 148.054 83.9283 147.317 82.4617C146.587 80.9868 146.223 79.2591 146.223 77.2788C146.223 75.3233 146.587 73.5998 147.317 72.1083C148.054 70.6169 149.082 69.4527 150.399 68.6158C151.725 67.7789 153.274 67.3605 155.047 67.3605C156.125 67.3605 157.169 67.5386 158.18 67.8949C159.19 68.2512 160.098 68.8105 160.902 69.5728C161.705 70.3351 162.339 71.3253 162.803 72.5433C163.267 73.7531 163.499 75.2239 163.499 76.9556V78.2731H148.323V75.489H159.857C159.857 74.5113 159.659 73.6454 159.261 72.8914C158.863 72.129 158.304 71.5283 157.583 71.0892C156.87 70.65 156.034 70.4304 155.072 70.4304C154.028 70.4304 153.117 70.6873 152.338 71.201C151.567 71.7065 150.971 72.3693 150.548 73.1897C150.134 74.0017 149.927 74.8841 149.927 75.837V78.0121C149.927 79.2881 150.15 80.3736 150.598 81.2685C151.054 82.1634 151.688 82.847 152.5 83.3193C153.312 83.7833 154.26 84.0153 155.346 84.0153C156.05 84.0153 156.692 83.9159 157.272 83.717C157.852 83.5098 158.354 83.2033 158.776 82.7973C159.199 82.3912 159.522 81.8899 159.746 81.2933L163.263 81.9272C162.981 82.963 162.476 83.8703 161.747 84.6492C161.026 85.4198 160.118 86.0205 159.025 86.4514C157.939 86.874 156.701 87.0852 155.308 87.0852ZM181.928 72.2699L178.56 72.8665C178.419 72.4356 178.195 72.0255 177.889 71.636C177.591 71.2466 177.185 70.9276 176.671 70.679C176.157 70.4304 175.515 70.3061 174.744 70.3061C173.692 70.3061 172.814 70.5423 172.109 71.0146C171.405 71.4786 171.053 72.0793 171.053 72.8168C171.053 73.4548 171.289 73.9685 171.761 74.358C172.234 74.7474 172.996 75.0664 174.048 75.315L177.081 76.011C178.838 76.417 180.147 77.0426 181.009 77.8878C181.87 78.733 182.301 79.8309 182.301 81.1815C182.301 82.325 181.97 83.3441 181.307 84.239C180.652 85.1256 179.737 85.8216 178.56 86.3271C177.392 86.8325 176.037 87.0852 174.496 87.0852C172.358 87.0852 170.614 86.6295 169.263 85.7181C167.913 84.7983 167.084 83.4933 166.777 81.8029L170.369 81.2561C170.593 82.1924 171.053 82.9008 171.749 83.3814C172.445 83.8537 173.352 84.0899 174.471 84.0899C175.689 84.0899 176.663 83.8371 177.392 83.3317C178.121 82.818 178.485 82.1924 178.485 81.4549C178.485 80.8583 178.262 80.357 177.814 79.951C177.375 79.545 176.7 79.2384 175.788 79.0313L172.557 78.3228C170.775 77.9168 169.458 77.2705 168.604 76.3839C167.759 75.4973 167.337 74.3745 167.337 73.0156C167.337 71.8888 167.651 70.9027 168.281 70.0575C168.911 69.2124 169.781 68.5536 170.891 68.0813C172.002 67.6008 173.274 67.3605 174.707 67.3605C176.77 67.3605 178.394 67.8079 179.579 68.7028C180.764 69.5894 181.547 70.7784 181.928 72.2699Z" fill="white"/>
<path d="M1.96797 124V112.8H5.16797C6.47997 112.8 7.5573 113.024 8.39997 113.472C9.2533 113.92 9.88264 114.565 10.288 115.408C10.704 116.251 10.912 117.259 10.912 118.432C10.912 119.584 10.704 120.576 10.288 121.408C9.88264 122.24 9.2533 122.88 8.39997 123.328C7.5573 123.776 6.47997 124 5.16797 124H1.96797ZM3.08797 123.072H5.15197C6.28264 123.072 7.18397 122.885 7.85597 122.512C8.52797 122.139 9.0133 121.605 9.31197 120.912C9.61064 120.219 9.75997 119.392 9.75997 118.432C9.75997 117.461 9.61064 116.624 9.31197 115.92C9.0133 115.216 8.52797 114.677 7.85597 114.304C7.18397 113.92 6.28264 113.728 5.15197 113.728H3.08797V123.072ZM12.9687 124V115.968H14.0887V124H12.9687ZM13.5447 114.048C13.3101 114.048 13.1127 113.973 12.9527 113.824C12.8034 113.664 12.7287 113.467 12.7287 113.232C12.7287 112.987 12.8034 112.795 12.9527 112.656C13.1127 112.507 13.3047 112.432 13.5287 112.432C13.7527 112.432 13.9447 112.507 14.1047 112.656C14.2647 112.795 14.3447 112.987 14.3447 113.232C14.3447 113.467 14.2647 113.664 14.1047 113.824C13.9554 113.973 13.7687 114.048 13.5447 114.048ZM19.4878 124.192C18.8585 124.192 18.2985 124.085 17.8078 123.872C17.3278 123.659 16.9385 123.355 16.6398 122.96C16.3412 122.555 16.1598 122.075 16.0958 121.52H17.2478C17.3118 121.829 17.4345 122.112 17.6158 122.368C17.8078 122.624 18.0638 122.827 18.3838 122.976C18.7038 123.125 19.0825 123.2 19.5198 123.2C19.9252 123.2 20.2558 123.141 20.5118 123.024C20.7785 122.907 20.9758 122.747 21.1038 122.544C21.2318 122.331 21.2958 122.096 21.2958 121.84C21.2958 121.499 21.2158 121.232 21.0558 121.04C20.8958 120.837 20.6612 120.688 20.3518 120.592C20.0425 120.496 19.6638 120.405 19.2158 120.32C18.8745 120.256 18.5385 120.176 18.2078 120.08C17.8772 119.973 17.5785 119.835 17.3118 119.664C17.0558 119.493 16.8478 119.28 16.6878 119.024C16.5385 118.757 16.4638 118.443 16.4638 118.08C16.4638 117.632 16.5758 117.237 16.7998 116.896C17.0345 116.544 17.3598 116.272 17.7758 116.08C18.2025 115.877 18.7038 115.776 19.2798 115.776C20.1012 115.776 20.7732 115.984 21.2958 116.4C21.8292 116.805 22.1385 117.403 22.2238 118.192H21.0878C21.0452 117.755 20.8638 117.408 20.5438 117.152C20.2238 116.896 19.7918 116.768 19.2478 116.768C18.7252 116.768 18.3198 116.88 18.0318 117.104C17.7545 117.317 17.6158 117.611 17.6158 117.984C17.6158 118.208 17.6905 118.405 17.8398 118.576C17.9892 118.747 18.2078 118.896 18.4958 119.024C18.7945 119.141 19.1572 119.243 19.5838 119.328C20.0852 119.424 20.5492 119.552 20.9758 119.712C21.4132 119.861 21.7652 120.091 22.0318 120.4C22.3092 120.709 22.4478 121.157 22.4478 121.744C22.4585 122.213 22.3412 122.635 22.0958 123.008C21.8612 123.381 21.5198 123.675 21.0718 123.888C20.6238 124.091 20.0958 124.192 19.4878 124.192ZM27.9861 124.192C27.2501 124.192 26.5834 124.016 25.9861 123.664C25.3994 123.312 24.9354 122.821 24.5941 122.192C24.2528 121.563 24.0821 120.832 24.0821 120C24.0821 119.136 24.2528 118.395 24.5941 117.776C24.9354 117.147 25.3994 116.656 25.9861 116.304C26.5834 115.952 27.2501 115.776 27.9861 115.776C28.9248 115.776 29.7034 116.021 30.3221 116.512C30.9514 116.992 31.3514 117.632 31.5221 118.432H30.4021C30.2848 117.888 30.0021 117.472 29.5541 117.184C29.1168 116.885 28.5941 116.736 27.9861 116.736C27.4954 116.736 27.0421 116.859 26.6261 117.104C26.2101 117.349 25.8741 117.712 25.6181 118.192C25.3621 118.661 25.2341 119.259 25.2341 119.984C25.2341 120.528 25.3088 121.003 25.4581 121.408C25.6074 121.813 25.8101 122.155 26.0661 122.432C26.3328 122.699 26.6261 122.901 26.9461 123.04C27.2768 123.179 27.6234 123.248 27.9861 123.248C28.3808 123.248 28.7434 123.184 29.0741 123.056C29.4154 122.917 29.7034 122.725 29.9381 122.48C30.1728 122.224 30.3274 121.909 30.4021 121.536H31.5221C31.3621 122.325 30.9674 122.965 30.3381 123.456C29.7088 123.947 28.9248 124.192 27.9861 124.192ZM37.0017 124.192C36.2657 124.192 35.5991 124.021 35.0017 123.68C34.4151 123.328 33.9511 122.837 33.6097 122.208C33.2684 121.568 33.0977 120.832 33.0977 120C33.0977 119.125 33.2684 118.379 33.6097 117.76C33.9617 117.131 34.4364 116.645 35.0337 116.304C35.6311 115.952 36.2977 115.776 37.0337 115.776C37.7911 115.776 38.4631 115.952 39.0497 116.304C39.6364 116.645 40.1004 117.131 40.4417 117.76C40.7937 118.379 40.9697 119.125 40.9697 120C40.9697 120.843 40.7937 121.579 40.4417 122.208C40.0897 122.837 39.6151 123.328 39.0177 123.68C38.4311 124.021 37.7591 124.192 37.0017 124.192ZM37.0177 123.232C37.5084 123.232 37.9617 123.109 38.3777 122.864C38.8044 122.619 39.1511 122.256 39.4177 121.776C39.6844 121.296 39.8177 120.699 39.8177 119.984C39.8177 119.259 39.6844 118.661 39.4177 118.192C39.1617 117.712 38.8204 117.349 38.3937 117.104C37.9777 116.859 37.5244 116.736 37.0337 116.736C36.5537 116.736 36.1004 116.859 35.6737 117.104C35.2471 117.349 34.9004 117.712 34.6337 118.192C34.3777 118.661 34.2497 119.259 34.2497 119.984C34.2497 120.699 34.3777 121.296 34.6337 121.776C34.8897 122.256 35.2257 122.619 35.6417 122.864C36.0684 123.109 36.5271 123.232 37.0177 123.232ZM44.8177 124L41.7457 115.968H42.9137L45.4577 122.912L48.0017 115.968H49.1537L46.0817 124H44.8177ZM53.7495 124.192C53.0028 124.192 52.3415 124.016 51.7655 123.664C51.2001 123.312 50.7521 122.821 50.4215 122.192C50.1015 121.563 49.9415 120.821 49.9415 119.968C49.9415 119.115 50.1015 118.379 50.4215 117.76C50.7415 117.131 51.1895 116.645 51.7655 116.304C52.3521 115.952 53.0241 115.776 53.7815 115.776C54.5601 115.776 55.2215 115.952 55.7655 116.304C56.3095 116.656 56.7201 117.115 56.9975 117.68C57.2855 118.235 57.4295 118.843 57.4295 119.504C57.4295 119.611 57.4295 119.723 57.4295 119.84C57.4295 119.957 57.4241 120.085 57.4135 120.224H50.7895V119.28H56.3415C56.3095 118.469 56.0481 117.845 55.5575 117.408C55.0775 116.96 54.4695 116.736 53.7335 116.736C53.2641 116.736 52.8215 116.843 52.4055 117.056C51.9895 117.269 51.6535 117.589 51.3975 118.016C51.1521 118.432 51.0295 118.955 51.0295 119.584V120.016C51.0295 120.731 51.1575 121.328 51.4135 121.808C51.6801 122.288 52.0215 122.645 52.4375 122.88C52.8535 123.115 53.2908 123.232 53.7495 123.232C54.3575 123.232 54.8588 123.099 55.2535 122.832C55.6588 122.555 55.9468 122.171 56.1175 121.68H57.2055C57.0775 122.16 56.8588 122.592 56.5495 122.976C56.2401 123.349 55.8508 123.648 55.3815 123.872C54.9121 124.085 54.3681 124.192 53.7495 124.192ZM59.2466 124V115.968H60.2706L60.3506 117.52C60.5213 117.147 60.7453 116.832 61.0226 116.576C61.3106 116.309 61.6519 116.112 62.0466 115.984C62.4519 115.845 62.9159 115.776 63.4386 115.776V116.944H63.0226C62.6813 116.944 62.3453 116.992 62.0146 117.088C61.6946 117.173 61.4119 117.323 61.1666 117.536C60.9213 117.749 60.7239 118.037 60.5746 118.4C60.4359 118.763 60.3666 119.216 60.3666 119.76V124H59.2466ZM72.4428 124C71.9842 124 71.5895 123.931 71.2588 123.792C70.9282 123.643 70.6722 123.403 70.4908 123.072C70.3202 122.731 70.2348 122.267 70.2348 121.68V116.928H68.8428V115.968H70.2348L70.3948 114.096H71.3548V115.968H73.7708V116.928H71.3548V121.68C71.3548 122.213 71.4615 122.576 71.6748 122.768C71.8988 122.949 72.2775 123.04 72.8108 123.04H73.6428V124H72.4428ZM75.4966 124V112.48H76.6166V117.392C76.8939 116.891 77.2779 116.496 77.7686 116.208C78.2593 115.92 78.7979 115.776 79.3846 115.776C79.9926 115.776 80.5206 115.899 80.9686 116.144C81.4273 116.389 81.7793 116.763 82.0246 117.264C82.2806 117.765 82.4086 118.405 82.4086 119.184V124H81.3046V119.312C81.3046 118.448 81.1233 117.808 80.7606 117.392C80.4086 116.965 79.8859 116.752 79.1926 116.752C78.7126 116.752 78.2753 116.869 77.8806 117.104C77.4966 117.339 77.1873 117.68 76.9526 118.128C76.7286 118.565 76.6166 119.109 76.6166 119.76V124H75.4966ZM87.9682 124.192C87.2216 124.192 86.5602 124.016 85.9842 123.664C85.4189 123.312 84.9709 122.821 84.6402 122.192C84.3202 121.563 84.1602 120.821 84.1602 119.968C84.1602 119.115 84.3202 118.379 84.6402 117.76C84.9602 117.131 85.4082 116.645 85.9842 116.304C86.5709 115.952 87.2429 115.776 88.0002 115.776C88.7789 115.776 89.4402 115.952 89.9842 116.304C90.5282 116.656 90.9389 117.115 91.2162 117.68C91.5042 118.235 91.6482 118.843 91.6482 119.504C91.6482 119.611 91.6482 119.723 91.6482 119.84C91.6482 119.957 91.6429 120.085 91.6322 120.224H85.0082V119.28H90.5602C90.5282 118.469 90.2669 117.845 89.7762 117.408C89.2962 116.96 88.6882 116.736 87.9522 116.736C87.4829 116.736 87.0402 116.843 86.6242 117.056C86.2082 117.269 85.8722 117.589 85.6162 118.016C85.3709 118.432 85.2482 118.955 85.2482 119.584V120.016C85.2482 120.731 85.3762 121.328 85.6322 121.808C85.8989 122.288 86.2402 122.645 86.6562 122.88C87.0722 123.115 87.5096 123.232 87.9682 123.232C88.5762 123.232 89.0776 123.099 89.4722 122.832C89.8776 122.555 90.1656 122.171 90.3362 121.68H91.4242C91.2962 122.16 91.0776 122.592 90.7682 122.976C90.4589 123.349 90.0696 123.648 89.6002 123.872C89.1309 124.085 88.5869 124.192 87.9682 124.192ZM97.8716 124V115.968H98.8956L98.9756 117.168C99.2209 116.731 99.5569 116.389 99.9836 116.144C100.421 115.899 100.906 115.776 101.44 115.776C101.845 115.776 102.218 115.835 102.56 115.952C102.912 116.069 103.216 116.245 103.472 116.48C103.728 116.715 103.936 117.013 104.096 117.376C104.352 116.875 104.72 116.485 105.2 116.208C105.69 115.92 106.213 115.776 106.768 115.776C107.386 115.776 107.925 115.899 108.384 116.144C108.842 116.389 109.2 116.763 109.456 117.264C109.712 117.765 109.84 118.405 109.84 119.184V124H108.72V119.296C108.72 118.443 108.544 117.808 108.192 117.392C107.85 116.965 107.36 116.752 106.72 116.752C106.293 116.752 105.904 116.869 105.552 117.104C105.2 117.328 104.922 117.659 104.72 118.096C104.517 118.533 104.416 119.072 104.416 119.712V124H103.296V119.296C103.296 118.443 103.12 117.808 102.768 117.392C102.426 116.965 101.941 116.752 101.312 116.752C100.864 116.752 100.464 116.869 100.112 117.104C99.7703 117.328 99.4983 117.664 99.2956 118.112C99.0929 118.549 98.9916 119.093 98.9916 119.744V124H97.8716ZM115.502 124.192C114.766 124.192 114.099 124.021 113.502 123.68C112.915 123.328 112.451 122.837 112.11 122.208C111.768 121.568 111.598 120.832 111.598 120C111.598 119.125 111.768 118.379 112.11 117.76C112.462 117.131 112.936 116.645 113.534 116.304C114.131 115.952 114.798 115.776 115.534 115.776C116.291 115.776 116.963 115.952 117.55 116.304C118.136 116.645 118.6 117.131 118.942 117.76C119.294 118.379 119.47 119.125 119.47 120C119.47 120.843 119.294 121.579 118.942 122.208C118.59 122.837 118.115 123.328 117.518 123.68C116.931 124.021 116.259 124.192 115.502 124.192ZM115.518 123.232C116.008 123.232 116.462 123.109 116.878 122.864C117.304 122.619 117.651 122.256 117.918 121.776C118.184 121.296 118.318 120.699 118.318 119.984C118.318 119.259 118.184 118.661 117.918 118.192C117.662 117.712 117.32 117.349 116.894 117.104C116.478 116.859 116.024 116.736 115.534 116.736C115.054 116.736 114.6 116.859 114.174 117.104C113.747 117.349 113.4 117.712 113.134 118.192C112.878 118.661 112.75 119.259 112.75 119.984C112.75 120.699 112.878 121.296 113.134 121.776C113.39 122.256 113.726 122.619 114.142 122.864C114.568 123.109 115.027 123.232 115.518 123.232ZM124.332 124.192C123.702 124.192 123.142 124.085 122.652 123.872C122.172 123.659 121.782 123.355 121.484 122.96C121.185 122.555 121.004 122.075 120.94 121.52H122.092C122.156 121.829 122.278 122.112 122.46 122.368C122.652 122.624 122.908 122.827 123.228 122.976C123.548 123.125 123.926 123.2 124.364 123.2C124.769 123.2 125.1 123.141 125.356 123.024C125.622 122.907 125.82 122.747 125.948 122.544C126.076 122.331 126.14 122.096 126.14 121.84C126.14 121.499 126.06 121.232 125.9 121.04C125.74 120.837 125.505 120.688 125.196 120.592C124.886 120.496 124.508 120.405 124.06 120.32C123.718 120.256 123.382 120.176 123.052 120.08C122.721 119.973 122.422 119.835 122.156 119.664C121.9 119.493 121.692 119.28 121.532 119.024C121.382 118.757 121.308 118.443 121.308 118.08C121.308 117.632 121.42 117.237 121.644 116.896C121.878 116.544 122.204 116.272 122.62 116.08C123.046 115.877 123.548 115.776 124.124 115.776C124.945 115.776 125.617 115.984 126.14 116.4C126.673 116.805 126.982 117.403 127.068 118.192H125.932C125.889 117.755 125.708 117.408 125.388 117.152C125.068 116.896 124.636 116.768 124.092 116.768C123.569 116.768 123.164 116.88 122.876 117.104C122.598 117.317 122.46 117.611 122.46 117.984C122.46 118.208 122.534 118.405 122.684 118.576C122.833 118.747 123.052 118.896 123.34 119.024C123.638 119.141 124.001 119.243 124.428 119.328C124.929 119.424 125.393 119.552 125.82 119.712C126.257 119.861 126.609 120.091 126.876 120.4C127.153 120.709 127.292 121.157 127.292 121.744C127.302 122.213 127.185 122.635 126.94 123.008C126.705 123.381 126.364 123.675 125.916 123.888C125.468 124.091 124.94 124.192 124.332 124.192ZM131.927 124C131.469 124 131.074 123.931 130.743 123.792C130.413 123.643 130.157 123.403 129.975 123.072C129.805 122.731 129.719 122.267 129.719 121.68V116.928H128.327V115.968H129.719L129.879 114.096H130.839V115.968H133.255V116.928H130.839V121.68C130.839 122.213 130.946 122.576 131.159 122.768C131.383 122.949 131.762 123.04 132.295 123.04H133.127V124H131.927ZM142.427 124C141.969 124 141.574 123.931 141.243 123.792C140.913 123.643 140.657 123.403 140.475 123.072C140.305 122.731 140.219 122.267 140.219 121.68V116.928H138.827V115.968H140.219L140.379 114.096H141.339V115.968H143.755V116.928H141.339V121.68C141.339 122.213 141.446 122.576 141.659 122.768C141.883 122.949 142.262 123.04 142.795 123.04H143.627V124H142.427ZM145.481 124V115.968H146.505L146.585 117.52C146.756 117.147 146.98 116.832 147.257 116.576C147.545 116.309 147.886 116.112 148.281 115.984C148.686 115.845 149.15 115.776 149.673 115.776V116.944H149.257C148.916 116.944 148.58 116.992 148.249 117.088C147.929 117.173 147.646 117.323 147.401 117.536C147.156 117.749 146.958 118.037 146.809 118.4C146.67 118.763 146.601 119.216 146.601 119.76V124H145.481ZM154.343 124.192C153.597 124.192 152.935 124.016 152.359 123.664C151.794 123.312 151.346 122.821 151.015 122.192C150.695 121.563 150.535 120.821 150.535 119.968C150.535 119.115 150.695 118.379 151.015 117.76C151.335 117.131 151.783 116.645 152.359 116.304C152.946 115.952 153.618 115.776 154.375 115.776C155.154 115.776 155.815 115.952 156.359 116.304C156.903 116.656 157.314 117.115 157.591 117.68C157.879 118.235 158.023 118.843 158.023 119.504C158.023 119.611 158.023 119.723 158.023 119.84C158.023 119.957 158.018 120.085 158.007 120.224H151.383V119.28H156.935C156.903 118.469 156.642 117.845 156.151 117.408C155.671 116.96 155.063 116.736 154.327 116.736C153.858 116.736 153.415 116.843 152.999 117.056C152.583 117.269 152.247 117.589 151.991 118.016C151.746 118.432 151.623 118.955 151.623 119.584V120.016C151.623 120.731 151.751 121.328 152.007 121.808C152.274 122.288 152.615 122.645 153.031 122.88C153.447 123.115 153.885 123.232 154.343 123.232C154.951 123.232 155.453 123.099 155.847 122.832C156.253 122.555 156.541 122.171 156.711 121.68H157.799C157.671 122.16 157.453 122.592 157.143 122.976C156.834 123.349 156.445 123.648 155.975 123.872C155.506 124.085 154.962 124.192 154.343 124.192ZM159.84 124V115.968H160.864L160.928 117.408C161.184 116.885 161.552 116.485 162.032 116.208C162.523 115.92 163.067 115.776 163.664 115.776C164.283 115.776 164.822 115.899 165.28 116.144C165.739 116.379 166.096 116.747 166.352 117.248C166.608 117.749 166.736 118.389 166.736 119.168V124H165.616V119.296C165.616 118.432 165.43 117.792 165.056 117.376C164.683 116.96 164.155 116.752 163.472 116.752C162.992 116.752 162.56 116.869 162.176 117.104C161.803 117.328 161.504 117.659 161.28 118.096C161.067 118.533 160.96 119.077 160.96 119.728V124H159.84ZM172.361 124.192C171.571 124.192 170.883 124.011 170.297 123.648C169.721 123.275 169.273 122.773 168.953 122.144C168.633 121.504 168.473 120.779 168.473 119.968C168.473 119.157 168.633 118.437 168.953 117.808C169.273 117.179 169.726 116.683 170.313 116.32C170.899 115.957 171.587 115.776 172.377 115.776C173.059 115.776 173.657 115.92 174.169 116.208C174.691 116.496 175.086 116.907 175.353 117.44V112.48H176.473V124H175.449L175.353 122.56C175.193 122.837 174.974 123.104 174.697 123.36C174.419 123.605 174.083 123.808 173.689 123.968C173.305 124.117 172.862 124.192 172.361 124.192ZM172.441 123.216C173.006 123.216 173.502 123.083 173.929 122.816C174.355 122.549 174.686 122.176 174.921 121.696C175.166 121.205 175.289 120.635 175.289 119.984C175.289 119.333 175.166 118.768 174.921 118.288C174.686 117.797 174.355 117.419 173.929 117.152C173.502 116.885 173.006 116.752 172.441 116.752C171.897 116.752 171.406 116.885 170.969 117.152C170.542 117.419 170.206 117.797 169.961 118.288C169.726 118.768 169.609 119.328 169.609 119.968C169.609 120.629 169.731 121.205 169.977 121.696C170.222 122.176 170.558 122.549 170.985 122.816C171.411 123.083 171.897 123.216 172.441 123.216ZM178.891 124V115.968H180.011V124H178.891ZM179.467 114.048C179.232 114.048 179.035 113.973 178.875 113.824C178.725 113.664 178.651 113.467 178.651 113.232C178.651 112.987 178.725 112.795 178.875 112.656C179.035 112.507 179.227 112.432 179.451 112.432C179.675 112.432 179.867 112.507 180.027 112.656C180.187 112.795 180.267 112.987 180.267 113.232C180.267 113.467 180.187 113.664 180.027 113.824C179.877 113.973 179.691 114.048 179.467 114.048ZM182.45 124V115.968H183.474L183.538 117.408C183.794 116.885 184.162 116.485 184.642 116.208C185.132 115.92 185.676 115.776 186.274 115.776C186.892 115.776 187.431 115.899 187.89 116.144C188.348 116.379 188.706 116.747 188.962 117.248C189.218 117.749 189.346 118.389 189.346 119.168V124H188.226V119.296C188.226 118.432 188.039 117.792 187.666 117.376C187.292 116.96 186.764 116.752 186.082 116.752C185.602 116.752 185.17 116.869 184.786 117.104C184.412 117.328 184.114 117.659 183.89 118.096C183.676 118.533 183.57 119.077 183.57 119.728V124H182.45ZM194.554 127.712C193.839 127.712 193.205 127.616 192.65 127.424C192.106 127.243 191.674 126.955 191.354 126.56C191.045 126.176 190.89 125.707 190.89 125.152C190.89 124.928 190.927 124.683 191.002 124.416C191.087 124.16 191.242 123.899 191.466 123.632C191.701 123.365 192.031 123.125 192.458 122.912L193.37 123.312C192.805 123.579 192.437 123.867 192.266 124.176C192.106 124.496 192.026 124.784 192.026 125.04C192.026 125.413 192.133 125.728 192.346 125.984C192.57 126.24 192.869 126.432 193.242 126.56C193.626 126.688 194.063 126.752 194.554 126.752C195.034 126.752 195.45 126.683 195.802 126.544C196.165 126.405 196.442 126.203 196.634 125.936C196.826 125.68 196.922 125.381 196.922 125.04C196.922 124.656 196.767 124.325 196.458 124.048C196.159 123.781 195.599 123.627 194.778 123.584C194.138 123.541 193.605 123.488 193.178 123.424C192.762 123.349 192.415 123.264 192.138 123.168C191.861 123.061 191.637 122.949 191.466 122.832C191.295 122.704 191.13 122.576 190.97 122.448V122.064L192.49 120.608L193.53 120.992L192.042 122.32L192.122 121.888C192.25 121.984 192.367 122.069 192.474 122.144C192.581 122.208 192.725 122.267 192.906 122.32C193.098 122.373 193.359 122.427 193.69 122.48C194.031 122.523 194.49 122.565 195.066 122.608C195.791 122.661 196.373 122.789 196.81 122.992C197.247 123.195 197.567 123.467 197.77 123.808C197.973 124.149 198.074 124.544 198.074 124.992C198.074 125.451 197.946 125.883 197.69 126.288C197.445 126.704 197.061 127.045 196.538 127.312C196.026 127.579 195.365 127.712 194.554 127.712ZM194.522 121.44C193.85 121.44 193.279 121.317 192.81 121.072C192.351 120.816 191.999 120.475 191.754 120.048C191.509 119.611 191.386 119.131 191.386 118.608C191.386 118.075 191.509 117.595 191.754 117.168C191.999 116.741 192.351 116.405 192.81 116.16C193.279 115.904 193.85 115.776 194.522 115.776C195.205 115.776 195.775 115.904 196.234 116.16C196.703 116.405 197.055 116.741 197.29 117.168C197.535 117.595 197.658 118.075 197.658 118.608C197.658 119.131 197.535 119.611 197.29 120.048C197.055 120.475 196.703 120.816 196.234 121.072C195.775 121.317 195.205 121.44 194.522 121.44ZM194.522 120.496C195.141 120.496 195.626 120.336 195.978 120.016C196.341 119.685 196.522 119.216 196.522 118.608C196.522 117.989 196.341 117.525 195.978 117.216C195.626 116.896 195.141 116.736 194.522 116.736C193.903 116.736 193.413 116.896 193.05 117.216C192.687 117.525 192.506 117.989 192.506 118.608C192.506 119.216 192.687 119.685 193.05 120.016C193.413 120.336 193.903 120.496 194.522 120.496ZM195.834 116.976L195.434 115.968H198.698V116.88L195.834 116.976ZM1.85597 153.52V141.968H2.87997L2.97597 143.392C3.14664 143.115 3.37064 142.853 3.64797 142.608C3.9253 142.352 4.25597 142.149 4.63997 142C5.02397 141.851 5.46664 141.776 5.96797 141.776C6.7573 141.776 7.4453 141.963 8.03197 142.336C8.61864 142.699 9.07197 143.2 9.39197 143.84C9.71197 144.469 9.87197 145.189 9.87197 146C9.87197 146.811 9.70664 147.531 9.37597 148.16C9.05597 148.789 8.60264 149.285 8.01597 149.648C7.43997 150.011 6.75197 150.192 5.95197 150.192C5.27997 150.192 4.68264 150.048 4.15997 149.76C3.64797 149.472 3.2533 149.061 2.97597 148.528V153.52H1.85597ZM5.88797 149.216C6.44264 149.216 6.9333 149.083 7.35997 148.816C7.78664 148.549 8.1173 148.176 8.35197 147.696C8.5973 147.205 8.71997 146.635 8.71997 145.984C8.71997 145.333 8.5973 144.768 8.35197 144.288C8.1173 143.797 7.78664 143.419 7.35997 143.152C6.9333 142.885 6.44264 142.752 5.88797 142.752C5.3333 142.752 4.8373 142.885 4.39997 143.152C3.9733 143.419 3.6373 143.797 3.39197 144.288C3.1573 144.768 3.03997 145.333 3.03997 145.984C3.03997 146.635 3.1573 147.205 3.39197 147.696C3.6373 148.176 3.9733 148.549 4.39997 148.816C4.8373 149.083 5.3333 149.216 5.88797 149.216ZM11.7778 150V141.968H12.8018L12.8818 143.52C13.0525 143.147 13.2765 142.832 13.5538 142.576C13.8418 142.309 14.1832 142.112 14.5778 141.984C14.9832 141.845 15.4472 141.776 15.9698 141.776V142.944H15.5538C15.2125 142.944 14.8765 142.992 14.5458 143.088C14.2258 143.173 13.9432 143.323 13.6978 143.536C13.4525 143.749 13.2552 144.037 13.1058 144.4C12.9672 144.763 12.8978 145.216 12.8978 145.76V150H11.7778ZM20.7361 150.192C20.0001 150.192 19.3334 150.021 18.7361 149.68C18.1494 149.328 17.6854 148.837 17.3441 148.208C17.0028 147.568 16.8321 146.832 16.8321 146C16.8321 145.125 17.0028 144.379 17.3441 143.76C17.6961 143.131 18.1708 142.645 18.7681 142.304C19.3654 141.952 20.0321 141.776 20.7681 141.776C21.5254 141.776 22.1974 141.952 22.7841 142.304C23.3708 142.645 23.8348 143.131 24.1761 143.76C24.5281 144.379 24.7041 145.125 24.7041 146C24.7041 146.843 24.5281 147.579 24.1761 148.208C23.8241 148.837 23.3494 149.328 22.7521 149.68C22.1654 150.021 21.4934 150.192 20.7361 150.192ZM20.7521 149.232C21.2428 149.232 21.6961 149.109 22.1121 148.864C22.5388 148.619 22.8854 148.256 23.1521 147.776C23.4188 147.296 23.5521 146.699 23.5521 145.984C23.5521 145.259 23.4188 144.661 23.1521 144.192C22.8961 143.712 22.5548 143.349 22.1281 143.104C21.7121 142.859 21.2588 142.736 20.7681 142.736C20.2881 142.736 19.8348 142.859 19.4081 143.104C18.9814 143.349 18.6348 143.712 18.3681 144.192C18.1121 144.661 17.9841 145.259 17.9841 145.984C17.9841 146.699 18.1121 147.296 18.3681 147.776C18.6241 148.256 18.9601 148.619 19.3761 148.864C19.8028 149.109 20.2614 149.232 20.7521 149.232ZM30.142 150.192C29.3526 150.192 28.6646 150.011 28.078 149.648C27.502 149.275 27.054 148.773 26.734 148.144C26.414 147.504 26.254 146.779 26.254 145.968C26.254 145.157 26.414 144.437 26.734 143.808C27.054 143.179 27.5073 142.683 28.094 142.32C28.6806 141.957 29.3686 141.776 30.158 141.776C30.8406 141.776 31.438 141.92 31.95 142.208C32.4726 142.496 32.8673 142.907 33.134 143.44V138.48H34.254V150H33.23L33.134 148.56C32.974 148.837 32.7553 149.104 32.478 149.36C32.2006 149.605 31.8646 149.808 31.47 149.968C31.086 150.117 30.6433 150.192 30.142 150.192ZM30.222 149.216C30.7873 149.216 31.2833 149.083 31.71 148.816C32.1366 148.549 32.4673 148.176 32.702 147.696C32.9473 147.205 33.07 146.635 33.07 145.984C33.07 145.333 32.9473 144.768 32.702 144.288C32.4673 143.797 32.1366 143.419 31.71 143.152C31.2833 142.885 30.7873 142.752 30.222 142.752C29.678 142.752 29.1873 142.885 28.75 143.152C28.3233 143.419 27.9873 143.797 27.742 144.288C27.5073 144.768 27.39 145.328 27.39 145.968C27.39 146.629 27.5126 147.205 27.758 147.696C28.0033 148.176 28.3393 148.549 28.766 148.816C29.1926 149.083 29.678 149.216 30.222 149.216ZM39.4238 150.192C38.8158 150.192 38.2825 150.075 37.8238 149.84C37.3652 149.595 37.0078 149.221 36.7518 148.72C36.4958 148.219 36.3678 147.579 36.3678 146.8V141.968H37.4878V146.672C37.4878 147.536 37.6745 148.176 38.0478 148.592C38.4212 149.008 38.9492 149.216 39.6318 149.216C40.1118 149.216 40.5385 149.104 40.9118 148.88C41.2958 148.645 41.5945 148.309 41.8078 147.872C42.0212 147.424 42.1278 146.88 42.1278 146.24V141.968H43.2478V150H42.2398L42.1598 148.56C41.9145 149.072 41.5465 149.472 41.0558 149.76C40.5758 150.048 40.0318 150.192 39.4238 150.192ZM49.0642 150.192C48.3282 150.192 47.6616 150.016 47.0642 149.664C46.4776 149.312 46.0136 148.821 45.6722 148.192C45.3309 147.563 45.1602 146.832 45.1602 146C45.1602 145.136 45.3309 144.395 45.6722 143.776C46.0136 143.147 46.4776 142.656 47.0642 142.304C47.6616 141.952 48.3282 141.776 49.0642 141.776C50.0029 141.776 50.7816 142.021 51.4002 142.512C52.0296 142.992 52.4296 143.632 52.6002 144.432H51.4802C51.3629 143.888 51.0802 143.472 50.6322 143.184C50.1949 142.885 49.6722 142.736 49.0642 142.736C48.5736 142.736 48.1202 142.859 47.7042 143.104C47.2882 143.349 46.9522 143.712 46.6962 144.192C46.4402 144.661 46.3122 145.259 46.3122 145.984C46.3122 146.528 46.3869 147.003 46.5362 147.408C46.6856 147.813 46.8882 148.155 47.1442 148.432C47.4109 148.699 47.7042 148.901 48.0242 149.04C48.3549 149.179 48.7016 149.248 49.0642 149.248C49.4589 149.248 49.8216 149.184 50.1522 149.056C50.4936 148.917 50.7816 148.725 51.0162 148.48C51.2509 148.224 51.4056 147.909 51.4802 147.536H52.6002C52.4402 148.325 52.0456 148.965 51.4162 149.456C50.7869 149.947 50.0029 150.192 49.0642 150.192ZM57.3178 150C56.8592 150 56.4645 149.931 56.1338 149.792C55.8032 149.643 55.5472 149.403 55.3658 149.072C55.1952 148.731 55.1098 148.267 55.1098 147.68V142.928H53.7178V141.968H55.1098L55.2698 140.096H56.2298V141.968H58.6458V142.928H56.2298V147.68C56.2298 148.213 56.3365 148.576 56.5498 148.768C56.7738 148.949 57.1525 149.04 57.6858 149.04H58.5178V150H57.3178ZM63.3316 150.192C62.7023 150.192 62.1423 150.085 61.6516 149.872C61.1716 149.659 60.7823 149.355 60.4836 148.96C60.1849 148.555 60.0036 148.075 59.9396 147.52H61.0916C61.1556 147.829 61.2783 148.112 61.4596 148.368C61.6516 148.624 61.9076 148.827 62.2276 148.976C62.5476 149.125 62.9263 149.2 63.3636 149.2C63.7689 149.2 64.0996 149.141 64.3556 149.024C64.6223 148.907 64.8196 148.747 64.9476 148.544C65.0756 148.331 65.1396 148.096 65.1396 147.84C65.1396 147.499 65.0596 147.232 64.8996 147.04C64.7396 146.837 64.5049 146.688 64.1956 146.592C63.8863 146.496 63.5076 146.405 63.0596 146.32C62.7183 146.256 62.3823 146.176 62.0516 146.08C61.7209 145.973 61.4223 145.835 61.1556 145.664C60.8996 145.493 60.6916 145.28 60.5316 145.024C60.3823 144.757 60.3076 144.443 60.3076 144.08C60.3076 143.632 60.4196 143.237 60.6436 142.896C60.8783 142.544 61.2036 142.272 61.6196 142.08C62.0463 141.877 62.5476 141.776 63.1236 141.776C63.9449 141.776 64.6169 141.984 65.1396 142.4C65.6729 142.805 65.9823 143.403 66.0676 144.192H64.9316C64.8889 143.755 64.7076 143.408 64.3876 143.152C64.0676 142.896 63.6356 142.768 63.0916 142.768C62.5689 142.768 62.1636 142.88 61.8756 143.104C61.5983 143.317 61.4596 143.611 61.4596 143.984C61.4596 144.208 61.5343 144.405 61.6836 144.576C61.8329 144.747 62.0516 144.896 62.3396 145.024C62.6383 145.141 63.0009 145.243 63.4276 145.328C63.9289 145.424 64.3929 145.552 64.8196 145.712C65.2569 145.861 65.6089 146.091 65.8756 146.4C66.1529 146.709 66.2916 147.157 66.2916 147.744C66.3023 148.213 66.1849 148.635 65.9396 149.008C65.7049 149.381 65.3636 149.675 64.9156 149.888C64.4676 150.091 63.9396 150.192 63.3316 150.192ZM72.8281 150V141.968H73.9481V150H72.8281ZM73.4041 140.048C73.1694 140.048 72.9721 139.973 72.8121 139.824C72.6628 139.664 72.5881 139.467 72.5881 139.232C72.5881 138.987 72.6628 138.795 72.8121 138.656C72.9721 138.507 73.1641 138.432 73.3881 138.432C73.6121 138.432 73.8041 138.507 73.9641 138.656C74.1241 138.795 74.2041 138.987 74.2041 139.232C74.2041 139.467 74.1241 139.664 73.9641 139.824C73.8148 139.973 73.6281 140.048 73.4041 140.048ZM76.3872 150V141.968H77.4112L77.4752 143.408C77.7312 142.885 78.0992 142.485 78.5792 142.208C79.0699 141.92 79.6139 141.776 80.2112 141.776C80.8299 141.776 81.3686 141.899 81.8272 142.144C82.2859 142.379 82.6432 142.747 82.8992 143.248C83.1552 143.749 83.2832 144.389 83.2832 145.168V150H82.1632V145.296C82.1632 144.432 81.9766 143.792 81.6032 143.376C81.2299 142.96 80.7019 142.752 80.0192 142.752C79.5392 142.752 79.1072 142.869 78.7232 143.104C78.3499 143.328 78.0512 143.659 77.8272 144.096C77.6139 144.533 77.5072 145.077 77.5072 145.728V150H76.3872ZM89.8898 150V138.8H93.4098C94.2738 138.8 94.9832 138.944 95.5378 139.232C96.1032 139.509 96.5192 139.893 96.7858 140.384C97.0632 140.864 97.2018 141.413 97.2018 142.032C97.2018 142.64 97.0685 143.189 96.8018 143.68C96.5352 144.16 96.1192 144.544 95.5538 144.832C94.9992 145.12 94.2845 145.264 93.4098 145.264H91.0098V150H89.8898ZM91.0098 144.304H93.3938C94.3538 144.304 95.0365 144.101 95.4418 143.696C95.8472 143.28 96.0498 142.725 96.0498 142.032C96.0498 141.307 95.8472 140.747 95.4418 140.352C95.0365 139.947 94.3538 139.744 93.3938 139.744H91.0098V144.304ZM99.0937 150V141.968H100.214V150H99.0937ZM99.6697 140.048C99.4351 140.048 99.2377 139.973 99.0777 139.824C98.9284 139.664 98.8537 139.467 98.8537 139.232C98.8537 138.987 98.9284 138.795 99.0777 138.656C99.2377 138.507 99.4297 138.432 99.6537 138.432C99.8777 138.432 100.07 138.507 100.23 138.656C100.39 138.795 100.47 138.987 100.47 139.232C100.47 139.467 100.39 139.664 100.23 139.824C100.08 139.973 99.8937 140.048 99.6697 140.048ZM101.853 150L104.557 145.984L101.853 141.968H103.069L105.341 145.408L107.613 141.968H108.813L106.125 145.984L108.813 150H107.613L105.341 146.544L103.069 150H101.853ZM110.422 150V141.968H111.542V150H110.422ZM110.998 140.048C110.763 140.048 110.566 139.973 110.406 139.824C110.257 139.664 110.182 139.467 110.182 139.232C110.182 138.987 110.257 138.795 110.406 138.656C110.566 138.507 110.758 138.432 110.982 138.432C111.206 138.432 111.398 138.507 111.558 138.656C111.718 138.795 111.798 138.987 111.798 139.232C111.798 139.467 111.718 139.664 111.558 139.824C111.409 139.973 111.222 140.048 110.998 140.048ZM117.533 150.192C116.797 150.192 116.13 150.021 115.533 149.68C114.946 149.328 114.482 148.837 114.141 148.208C113.8 147.568 113.629 146.832 113.629 146C113.629 145.125 113.8 144.379 114.141 143.76C114.493 143.131 114.968 142.645 115.565 142.304C116.162 141.952 116.829 141.776 117.565 141.776C118.322 141.776 118.994 141.952 119.581 142.304C120.168 142.645 120.632 143.131 120.973 143.76C121.325 144.379 121.501 145.125 121.501 146C121.501 146.843 121.325 147.579 120.973 148.208C120.621 148.837 120.146 149.328 119.549 149.68C118.962 150.021 118.29 150.192 117.533 150.192ZM117.549 149.232C118.04 149.232 118.493 149.109 118.909 148.864C119.336 148.619 119.682 148.256 119.949 147.776C120.216 147.296 120.349 146.699 120.349 145.984C120.349 145.259 120.216 144.661 119.949 144.192C119.693 143.712 119.352 143.349 118.925 143.104C118.509 142.859 118.056 142.736 117.565 142.736C117.085 142.736 116.632 142.859 116.205 143.104C115.778 143.349 115.432 143.712 115.165 144.192C114.909 144.661 114.781 145.259 114.781 145.984C114.781 146.699 114.909 147.296 115.165 147.776C115.421 148.256 115.757 148.619 116.173 148.864C116.6 149.109 117.058 149.232 117.549 149.232ZM123.755 150.08C123.52 150.08 123.323 150 123.163 149.84C123.014 149.68 122.939 149.483 122.939 149.248C122.939 149.013 123.014 148.821 123.163 148.672C123.323 148.512 123.52 148.432 123.755 148.432C123.99 148.432 124.182 148.512 124.331 148.672C124.491 148.821 124.571 149.019 124.571 149.264C124.571 149.488 124.491 149.68 124.331 149.84C124.182 150 123.99 150.08 123.755 150.08Z" fill="white" fill-opacity="0.8"/>
<path d="M32.9845 204.95H4.80142L11.4708 198.467C11.9804 197.972 11.2246 197.184 10.7081 197.683L3.0719 205.106C2.84908 205.309 2.86683 205.675 3.07193 205.89L10.7081 213.317C11.2221 213.81 11.9822 213.037 11.4708 212.533L4.79894 206.044H32.9845C33.6834 206.037 33.7194 204.963 32.9845 204.95Z" fill="white"/>
<path d="M66.4555 204.95H94.6386L87.9692 198.467C87.4596 197.972 88.2154 197.184 88.7319 197.683L96.3681 205.106C96.5909 205.309 96.5731 205.675 96.368 205.89L88.7318 213.317C88.2179 213.81 87.4578 213.037 87.9692 212.533L94.641 206.044H66.4555C65.7566 206.037 65.7206 204.963 66.4555 204.95Z" fill="white"/>
</svg>
