<svg width="60" height="60" viewBox="0 0 60 60" fill="none" xmlns="http://www.w3.org/2000/svg">
<rect width="60" height="60" rx="30" fill="black"/>
<path d="M20.0098 31.2598H39.9902C40.3418 31.2402 40.6396 31.1133 40.8838 30.8789C41.1279 30.6445 41.25 30.3516 41.25 30C41.25 29.6484 41.1279 29.3555 40.8838 29.1211C40.6396 28.8867 40.3418 28.7598 39.9902 28.7402H20.0098C19.6582 28.7598 19.3604 28.8867 19.1162 29.1211C18.8721 29.3555 18.75 29.6484 18.75 30C18.75 30.3516 18.8721 30.6445 19.1162 30.8789C19.3604 31.1133 19.6582 31.2402 20.0098 31.2598ZM31.6113 36.6211C31.377 36.875 31.2598 37.168 31.2598 37.5C31.2598 37.832 31.3867 38.1201 31.6406 38.3643C31.8945 38.6084 32.1826 38.7305 32.5049 38.7305C32.8271 38.7305 33.1152 38.6133 33.3691 38.3789L40.8691 30.8789C41.123 30.625 41.25 30.332 41.25 30C41.25 29.668 41.123 29.375 40.8691 29.1211L33.3691 21.6211C33.1152 21.3867 32.8271 21.2695 32.5049 21.2695C32.1826 21.2695 31.8945 21.3916 31.6406 21.6357C31.3867 21.8799 31.2598 22.168 31.2598 22.5C31.2598 22.832 31.377 23.125 31.6113 23.3789L38.2324 30L31.6113 36.6211Z" fill="white"/>
</svg>
