<svg width="337" height="82" viewBox="0 0 337 82" fill="none" xmlns="http://www.w3.org/2000/svg">
<path d="M52.6617 42.8696L58.7381 45.2525L75.0609 54.3074L66.6016 68.9622L49.9214 59.9072L45.1557 55.9754L46.1088 62.4092V80.4H28.952V62.4092L30.0243 55.7371L24.9011 59.9072L8.45924 68.9622L0 54.3074L16.3228 45.0142L22.3991 42.8696L16.3228 40.3675L0 31.4317L8.45924 16.777L25.1394 25.7128L30.0243 29.8829L28.952 23.5682V5.21997H46.1088V23.5682L45.1557 29.6446L49.9214 25.7128L66.6016 16.777L75.0609 31.4317L58.7381 40.6058L52.6617 42.8696Z" fill="black"/>
<path d="M100.34 16.388C99.6307 16.388 98.996 16.2666 98.436 16.024C97.8853 15.7813 97.4467 15.4266 97.12 14.96C96.8027 14.4933 96.6393 13.9286 96.63 13.266H98.632C98.6413 13.5553 98.716 13.8166 98.856 14.05C98.996 14.2833 99.1873 14.47 99.43 14.61C99.682 14.7406 99.9807 14.806 100.326 14.806C100.625 14.806 100.881 14.7593 101.096 14.666C101.32 14.5633 101.493 14.4233 101.614 14.246C101.735 14.0686 101.796 13.8586 101.796 13.616C101.796 13.336 101.726 13.1026 101.586 12.916C101.455 12.7293 101.269 12.5706 101.026 12.44C100.793 12.3093 100.517 12.1926 100.2 12.09C99.892 11.978 99.5653 11.8613 99.22 11.74C98.4453 11.488 97.8527 11.152 97.442 10.732C97.0407 10.312 96.84 9.75664 96.84 9.06597C96.84 8.47797 96.98 7.97397 97.26 7.55397C97.5493 7.13397 97.946 6.81197 98.45 6.58797C98.954 6.36397 99.528 6.25197 100.172 6.25197C100.835 6.25197 101.413 6.36864 101.908 6.60197C102.412 6.82597 102.809 7.15264 103.098 7.58197C103.397 8.0113 103.551 8.5153 103.56 9.09397H101.544C101.535 8.8793 101.469 8.67864 101.348 8.49197C101.236 8.29597 101.077 8.14197 100.872 8.02997C100.667 7.90864 100.424 7.84797 100.144 7.84797C99.9013 7.83864 99.6773 7.87597 99.472 7.95997C99.276 8.04397 99.1173 8.16997 98.996 8.33797C98.884 8.49664 98.828 8.6973 98.828 8.93997C98.828 9.1733 98.884 9.3693 98.996 9.52797C99.1173 9.68664 99.2807 9.82664 99.486 9.94797C99.6913 10.06 99.934 10.1673 100.214 10.27C100.494 10.3633 100.797 10.4613 101.124 10.564C101.609 10.732 102.057 10.9326 102.468 11.166C102.879 11.39 103.205 11.684 103.448 12.048C103.691 12.412 103.812 12.8926 103.812 13.49C103.812 14.0033 103.677 14.4793 103.406 14.918C103.135 15.3566 102.743 15.7113 102.23 15.982C101.726 16.2526 101.096 16.388 100.34 16.388ZM108.005 16.388C107.436 16.388 106.946 16.2713 106.535 16.038C106.134 15.7953 105.826 15.4453 105.611 14.988C105.397 14.5213 105.289 13.9473 105.289 13.266V9.16397H107.179V13.07C107.179 13.6393 107.296 14.0686 107.529 14.358C107.772 14.6473 108.141 14.792 108.635 14.792C108.953 14.792 109.233 14.722 109.475 14.582C109.718 14.4326 109.909 14.2226 110.049 13.952C110.199 13.672 110.273 13.3313 110.273 12.93V9.16397H112.149V16.22H110.497L110.343 15.072C110.138 15.4733 109.835 15.7953 109.433 16.038C109.032 16.2713 108.556 16.388 108.005 16.388ZM114 16.22V9.16397H115.666L115.82 10.102C116.044 9.76597 116.338 9.49997 116.702 9.30397C117.076 9.09864 117.5 8.99597 117.976 8.99597C118.331 8.99597 118.648 9.04264 118.928 9.13597C119.208 9.2293 119.456 9.36464 119.67 9.54197C119.894 9.7193 120.076 9.9433 120.216 10.214C120.478 9.8313 120.818 9.53264 121.238 9.31797C121.658 9.1033 122.116 8.99597 122.61 8.99597C123.226 8.99597 123.74 9.12197 124.15 9.37397C124.561 9.61664 124.869 9.9713 125.074 10.438C125.289 10.9046 125.396 11.4786 125.396 12.16V16.22H123.52V12.328C123.52 11.768 123.408 11.3386 123.184 11.04C122.97 10.7413 122.634 10.592 122.176 10.592C121.878 10.592 121.612 10.6666 121.378 10.816C121.145 10.9653 120.963 11.18 120.832 11.46C120.711 11.74 120.65 12.076 120.65 12.468V16.22H118.76V12.328C118.76 11.768 118.648 11.3386 118.424 11.04C118.2 10.7413 117.855 10.592 117.388 10.592C117.099 10.592 116.838 10.6666 116.604 10.816C116.38 10.9653 116.203 11.18 116.072 11.46C115.951 11.74 115.89 12.076 115.89 12.468V16.22H114ZM127.18 16.22V9.16397H128.846L129 10.102C129.224 9.76597 129.518 9.49997 129.882 9.30397C130.255 9.09864 130.68 8.99597 131.156 8.99597C131.511 8.99597 131.828 9.04264 132.108 9.13597C132.388 9.2293 132.635 9.36464 132.85 9.54197C133.074 9.7193 133.256 9.9433 133.396 10.214C133.657 9.8313 133.998 9.53264 134.418 9.31797C134.838 9.1033 135.295 8.99597 135.79 8.99597C136.406 8.99597 136.919 9.12197 137.33 9.37397C137.741 9.61664 138.049 9.9713 138.254 10.438C138.469 10.9046 138.576 11.4786 138.576 12.16V16.22H136.7V12.328C136.7 11.768 136.588 11.3386 136.364 11.04C136.149 10.7413 135.813 10.592 135.356 10.592C135.057 10.592 134.791 10.6666 134.558 10.816C134.325 10.9653 134.143 11.18 134.012 11.46C133.891 11.74 133.83 12.076 133.83 12.468V16.22H131.94V12.328C131.94 11.768 131.828 11.3386 131.604 11.04C131.38 10.7413 131.035 10.592 130.568 10.592C130.279 10.592 130.017 10.6666 129.784 10.816C129.56 10.9653 129.383 11.18 129.252 11.46C129.131 11.74 129.07 12.076 129.07 12.468V16.22H127.18ZM143.748 16.388C143.038 16.388 142.408 16.2386 141.858 15.94C141.316 15.632 140.892 15.2073 140.584 14.666C140.285 14.1153 140.136 13.4806 140.136 12.762C140.136 12.0246 140.285 11.376 140.584 10.816C140.892 10.2466 141.316 9.8033 141.858 9.48597C142.399 9.1593 143.029 8.99597 143.748 8.99597C144.448 8.99597 145.059 9.14997 145.582 9.45797C146.104 9.76597 146.51 10.1813 146.8 10.704C147.089 11.2266 147.234 11.8193 147.234 12.482C147.234 12.5753 147.234 12.6826 147.234 12.804C147.234 12.916 147.224 13.0326 147.206 13.154H141.48V12.006H145.33C145.302 11.5486 145.138 11.1893 144.84 10.928C144.55 10.6666 144.186 10.536 143.748 10.536C143.43 10.536 143.136 10.6106 142.866 10.76C142.595 10.9 142.38 11.1193 142.222 11.418C142.072 11.7166 141.998 12.0946 141.998 12.552V12.958C141.998 13.3406 142.068 13.6766 142.208 13.966C142.357 14.246 142.562 14.4653 142.824 14.624C143.085 14.7733 143.388 14.848 143.734 14.848C144.079 14.848 144.364 14.7733 144.588 14.624C144.821 14.4746 144.994 14.2833 145.106 14.05H147.038C146.907 14.4886 146.688 14.8853 146.38 15.24C146.072 15.5946 145.694 15.8746 145.246 16.08C144.798 16.2853 144.298 16.388 143.748 16.388ZM148.781 16.22V9.16397H150.461L150.643 10.466C150.811 10.158 151.021 9.89664 151.273 9.68197C151.535 9.4673 151.829 9.2993 152.155 9.17797C152.491 9.05664 152.86 8.99597 153.261 8.99597V10.998H152.617C152.337 10.998 152.076 11.0306 151.833 11.096C151.6 11.1613 151.395 11.2686 151.217 11.418C151.04 11.558 150.905 11.754 150.811 12.006C150.718 12.258 150.671 12.5753 150.671 12.958V16.22H148.781ZM162.243 16.388C161.263 16.388 160.418 16.178 159.709 15.758C159.009 15.3286 158.468 14.736 158.085 13.98C157.712 13.2146 157.525 12.3326 157.525 11.334C157.525 10.3353 157.712 9.4533 158.085 8.68797C158.468 7.92264 159.009 7.3253 159.709 6.89597C160.418 6.46664 161.263 6.25197 162.243 6.25197C163.428 6.25197 164.399 6.54597 165.155 7.13397C165.911 7.72197 166.382 8.55264 166.569 9.62597H164.511C164.39 9.1033 164.133 8.6973 163.741 8.40797C163.358 8.1093 162.854 7.95997 162.229 7.95997C161.65 7.95997 161.151 8.09997 160.731 8.37997C160.32 8.65064 160.003 9.03797 159.779 9.54197C159.555 10.0366 159.443 10.634 159.443 11.334C159.443 12.0246 159.555 12.622 159.779 13.126C160.003 13.63 160.32 14.0173 160.731 14.288C161.151 14.5586 161.65 14.694 162.229 14.694C162.854 14.694 163.358 14.5586 163.741 14.288C164.124 14.008 164.376 13.6206 164.497 13.126H166.569C166.382 14.1433 165.911 14.9413 165.155 15.52C164.399 16.0986 163.428 16.388 162.243 16.388ZM171.473 16.388C170.801 16.388 170.194 16.234 169.653 15.926C169.121 15.6086 168.696 15.1746 168.379 14.624C168.071 14.064 167.917 13.4246 167.917 12.706C167.917 11.9686 168.071 11.3246 168.379 10.774C168.696 10.214 169.125 9.77997 169.667 9.47197C170.208 9.15464 170.815 8.99597 171.487 8.99597C172.168 8.99597 172.775 9.15464 173.307 9.47197C173.848 9.77997 174.273 10.214 174.581 10.774C174.898 11.3246 175.057 11.964 175.057 12.692C175.057 13.42 174.898 14.064 174.581 14.624C174.273 15.1746 173.848 15.6086 173.307 15.926C172.765 16.234 172.154 16.388 171.473 16.388ZM171.473 14.75C171.79 14.75 172.07 14.6753 172.313 14.526C172.565 14.3766 172.761 14.148 172.901 13.84C173.05 13.532 173.125 13.1493 173.125 12.692C173.125 12.2346 173.05 11.8566 172.901 11.558C172.761 11.25 172.565 11.0213 172.313 10.872C172.07 10.7133 171.795 10.634 171.487 10.634C171.188 10.634 170.913 10.7133 170.661 10.872C170.409 11.0213 170.208 11.25 170.059 11.558C169.919 11.8566 169.849 12.2346 169.849 12.692C169.849 13.1493 169.919 13.532 170.059 13.84C170.208 14.148 170.404 14.3766 170.647 14.526C170.899 14.6753 171.174 14.75 171.473 14.75ZM176.686 16.22V6.13997H178.576V16.22H176.686ZM180.418 16.22V6.13997H182.308V16.22H180.418ZM187.539 16.388C186.829 16.388 186.199 16.2386 185.649 15.94C185.107 15.632 184.683 15.2073 184.375 14.666C184.076 14.1153 183.927 13.4806 183.927 12.762C183.927 12.0246 184.076 11.376 184.375 10.816C184.683 10.2466 185.107 9.8033 185.649 9.48597C186.19 9.1593 186.82 8.99597 187.539 8.99597C188.239 8.99597 188.85 9.14997 189.373 9.45797C189.895 9.76597 190.301 10.1813 190.591 10.704C190.88 11.2266 191.025 11.8193 191.025 12.482C191.025 12.5753 191.025 12.6826 191.025 12.804C191.025 12.916 191.015 13.0326 190.997 13.154H185.271V12.006H189.121C189.093 11.5486 188.929 11.1893 188.631 10.928C188.341 10.6666 187.977 10.536 187.539 10.536C187.221 10.536 186.927 10.6106 186.657 10.76C186.386 10.9 186.171 11.1193 186.013 11.418C185.863 11.7166 185.789 12.0946 185.789 12.552V12.958C185.789 13.3406 185.859 13.6766 185.999 13.966C186.148 14.246 186.353 14.4653 186.615 14.624C186.876 14.7733 187.179 14.848 187.525 14.848C187.87 14.848 188.155 14.7733 188.379 14.624C188.612 14.4746 188.785 14.2833 188.897 14.05H190.829C190.698 14.4886 190.479 14.8853 190.171 15.24C189.863 15.5946 189.485 15.8746 189.037 16.08C188.589 16.2853 188.089 16.388 187.539 16.388ZM195.988 16.388C195.279 16.388 194.649 16.2293 194.098 15.912C193.548 15.5946 193.118 15.1606 192.81 14.61C192.502 14.0593 192.348 13.4293 192.348 12.72C192.348 11.992 192.502 11.3526 192.81 10.802C193.118 10.242 193.548 9.8033 194.098 9.48597C194.649 9.1593 195.279 8.99597 195.988 8.99597C196.894 8.99597 197.654 9.23397 198.27 9.70997C198.886 10.186 199.278 10.8393 199.446 11.67H197.444C197.36 11.3433 197.183 11.0866 196.912 10.9C196.651 10.7133 196.338 10.62 195.974 10.62C195.648 10.62 195.354 10.704 195.092 10.872C194.84 11.0306 194.64 11.2686 194.49 11.586C194.35 11.894 194.28 12.2626 194.28 12.692C194.28 13.0186 194.322 13.3126 194.406 13.574C194.49 13.826 194.607 14.0453 194.756 14.232C194.906 14.4093 195.083 14.5446 195.288 14.638C195.503 14.7313 195.732 14.778 195.974 14.778C196.217 14.778 196.436 14.736 196.632 14.652C196.838 14.568 197.01 14.4513 197.15 14.302C197.29 14.1433 197.388 13.952 197.444 13.728H199.446C199.278 14.54 198.882 15.1886 198.256 15.674C197.64 16.15 196.884 16.388 195.988 16.388ZM204.172 16.22C203.678 16.22 203.244 16.1453 202.87 15.996C202.506 15.8373 202.222 15.5806 202.016 15.226C201.811 14.862 201.708 14.3673 201.708 13.742V10.746H200.504V9.16397H201.708L201.918 7.24597H203.598V9.16397H205.46V10.746H203.598V13.77C203.598 14.0873 203.668 14.3066 203.808 14.428C203.948 14.5493 204.186 14.61 204.522 14.61H205.446V16.22H204.172ZM207.093 16.22V9.16397H208.983V16.22H207.093ZM208.045 8.19797C207.709 8.19797 207.429 8.09997 207.205 7.90397C206.99 7.69864 206.883 7.44197 206.883 7.13397C206.883 6.82597 206.99 6.57397 207.205 6.37797C207.429 6.17264 207.709 6.06997 208.045 6.06997C208.39 6.06997 208.67 6.17264 208.885 6.37797C209.109 6.57397 209.221 6.82597 209.221 7.13397C209.221 7.44197 209.109 7.69864 208.885 7.90397C208.67 8.09997 208.39 8.19797 208.045 8.19797ZM214.225 16.388C213.553 16.388 212.946 16.234 212.405 15.926C211.873 15.6086 211.448 15.1746 211.131 14.624C210.823 14.064 210.669 13.4246 210.669 12.706C210.669 11.9686 210.823 11.3246 211.131 10.774C211.448 10.214 211.877 9.77997 212.419 9.47197C212.96 9.15464 213.567 8.99597 214.239 8.99597C214.92 8.99597 215.527 9.15464 216.059 9.47197C216.6 9.77997 217.025 10.214 217.333 10.774C217.65 11.3246 217.809 11.964 217.809 12.692C217.809 13.42 217.65 14.064 217.333 14.624C217.025 15.1746 216.6 15.6086 216.059 15.926C215.517 16.234 214.906 16.388 214.225 16.388ZM214.225 14.75C214.542 14.75 214.822 14.6753 215.065 14.526C215.317 14.3766 215.513 14.148 215.653 13.84C215.802 13.532 215.877 13.1493 215.877 12.692C215.877 12.2346 215.802 11.8566 215.653 11.558C215.513 11.25 215.317 11.0213 215.065 10.872C214.822 10.7133 214.547 10.634 214.239 10.634C213.94 10.634 213.665 10.7133 213.413 10.872C213.161 11.0213 212.96 11.25 212.811 11.558C212.671 11.8566 212.601 12.2346 212.601 12.692C212.601 13.1493 212.671 13.532 212.811 13.84C212.96 14.148 213.156 14.3766 213.399 14.526C213.651 14.6753 213.926 14.75 214.225 14.75ZM219.438 16.22V9.16397H221.104L221.244 10.312C221.458 9.91997 221.762 9.60264 222.154 9.35997C222.555 9.1173 223.031 8.99597 223.582 8.99597C224.17 8.99597 224.664 9.1173 225.066 9.35997C225.467 9.60264 225.77 9.9573 225.976 10.424C226.19 10.8906 226.298 11.4646 226.298 12.146V16.22H224.422V12.328C224.422 11.768 224.3 11.3386 224.058 11.04C223.824 10.7413 223.46 10.592 222.966 10.592C222.648 10.592 222.364 10.6666 222.112 10.816C221.869 10.9653 221.678 11.18 221.538 11.46C221.398 11.7306 221.328 12.062 221.328 12.454V16.22H219.438Z" fill="black"/>
<path d="M96.8532 39.9592V38.1291H107.758V39.9592H103.362V52.22H101.243V39.9592H96.8532ZM110.168 52.22V38.1291H115.191C116.283 38.1291 117.189 38.3171 117.909 38.6932C118.633 39.0694 119.175 39.59 119.532 40.2551C119.89 40.9156 120.069 41.6793 120.069 42.5462C120.069 43.4086 119.888 44.1677 119.526 44.8236C119.168 45.475 118.627 45.9818 117.902 46.3442C117.182 46.7065 116.276 46.8877 115.184 46.8877H111.379V45.0576H114.991C115.679 45.0576 116.239 44.9589 116.67 44.7617C117.106 44.5645 117.425 44.2778 117.627 43.9017C117.828 43.5255 117.929 43.0737 117.929 42.5462C117.929 42.0142 117.826 41.5532 117.62 41.1633C117.418 40.7734 117.099 40.4753 116.663 40.2688C116.232 40.0578 115.666 39.9523 114.964 39.9523H112.294V52.22H110.168ZM117.124 45.8625L120.606 52.22H118.184L114.771 45.8625H117.124ZM122.656 52.22V38.1291H131.49V39.9592H124.782V44.2526H131.029V46.0758H124.782V50.3898H131.573V52.22H122.656ZM145.703 38.1291V52.22H143.749L136.587 41.8857H136.456V52.22H134.33V38.1291H136.298L143.467 48.4771H143.598V38.1291H145.703ZM153.366 52.22H148.805V38.1291H153.511C154.892 38.1291 156.077 38.4112 157.068 38.9753C158.059 39.5349 158.818 40.3399 159.345 41.3903C159.878 42.4361 160.144 43.6907 160.144 45.1539C160.144 46.6217 159.875 47.8831 159.339 48.9381C158.806 49.993 158.036 50.8049 157.027 51.3737C156.018 51.9379 154.798 52.22 153.366 52.22ZM150.931 50.3623H153.249C154.323 50.3623 155.215 50.1605 155.926 49.7568C156.637 49.3486 157.169 48.7592 157.522 47.9886C157.875 47.2134 158.052 46.2685 158.052 45.1539C158.052 44.0484 157.875 43.1104 157.522 42.3398C157.174 41.5692 156.653 40.9844 155.96 40.5853C155.268 40.1863 154.408 39.9867 153.38 39.9867H150.931V50.3623ZM160.981 38.1291H163.396L167.077 44.5346H167.229L170.91 38.1291H173.325L168.212 46.6882V52.22H166.093V46.6882L160.981 38.1291ZM181.65 52.22H179.393L184.464 38.1291H186.92L191.991 52.22H189.734L185.75 40.6885H185.64L181.65 52.22ZM182.028 46.7019H189.349V48.4908H182.028V46.7019ZM205.399 38.1291V52.22H203.445L196.282 41.8857H196.152V52.22H194.026V38.1291H195.994L203.163 48.4771H203.294V38.1291H205.399ZM213.062 52.22H208.5V38.1291H213.206C214.587 38.1291 215.773 38.4112 216.763 38.9753C217.754 39.5349 218.513 40.3399 219.041 41.3903C219.573 42.4361 219.839 43.6907 219.839 45.1539C219.839 46.6217 219.571 47.8831 219.034 48.9381C218.502 49.993 217.731 50.8049 216.722 51.3737C215.713 51.9379 214.493 52.22 213.062 52.22ZM210.626 50.3623H212.945C214.018 50.3623 214.91 50.1605 215.621 49.7568C216.332 49.3486 216.864 48.7592 217.218 47.9886C217.571 47.2134 217.747 46.2685 217.747 45.1539C217.747 44.0484 217.571 43.1104 217.218 42.3398C216.869 41.5692 216.348 40.9844 215.656 40.5853C214.963 40.1863 214.103 39.9867 213.076 39.9867H210.626V50.3623ZM239.314 42.7114H237.167C237.085 42.2527 236.931 41.849 236.706 41.5004C236.481 41.1518 236.206 40.856 235.88 40.6129C235.555 40.3698 235.19 40.1863 234.787 40.0624C234.387 39.9386 233.963 39.8767 233.514 39.8767C232.702 39.8767 231.975 40.0808 231.333 40.489C230.695 40.8972 230.19 41.4958 229.819 42.2848C229.452 43.0737 229.268 44.037 229.268 45.1745C229.268 46.3212 229.452 47.2891 229.819 48.078C230.19 48.867 230.697 49.4633 231.339 49.8669C231.982 50.2705 232.704 50.4724 233.507 50.4724C233.952 50.4724 234.374 50.4127 234.773 50.2935C235.176 50.1696 235.541 49.9885 235.867 49.7499C236.192 49.5114 236.468 49.2201 236.692 48.8761C236.922 48.5275 237.08 48.1285 237.167 47.679L239.314 47.6858C239.199 48.3785 238.977 49.016 238.646 49.5986C238.321 50.1765 237.901 50.6765 237.387 51.0985C236.878 51.5159 236.296 51.8393 235.64 52.0686C234.984 52.2979 234.268 52.4126 233.493 52.4126C232.273 52.4126 231.186 52.1236 230.232 51.5457C229.278 50.9632 228.525 50.1306 227.975 49.0481C227.429 47.9656 227.156 46.6744 227.156 45.1745C227.156 43.67 227.431 42.3788 227.982 41.3009C228.532 40.2184 229.285 39.3882 230.239 38.8102C231.193 38.2277 232.277 37.9364 233.493 37.9364C234.241 37.9364 234.938 38.0442 235.585 38.2598C236.236 38.4708 236.821 38.7827 237.339 39.1955C237.857 39.6037 238.286 40.1037 238.626 40.6954C238.965 41.2825 239.195 41.9545 239.314 42.7114ZM241.858 52.22V38.1291H243.984V50.3898H250.369V52.22H241.858ZM254.703 52.22H252.447L257.517 38.1291H259.974L265.044 52.22H262.788L258.804 40.6885H258.694L254.703 52.22ZM255.082 46.7019H262.402V48.4908H255.082V46.7019ZM274.651 41.8307C274.578 41.1793 274.275 40.6748 273.743 40.317C273.211 39.9546 272.541 39.7735 271.734 39.7735C271.156 39.7735 270.656 39.8652 270.234 40.0487C269.812 40.2276 269.484 40.4753 269.25 40.7917C269.021 41.1037 268.906 41.4591 268.906 41.8582C268.906 42.193 268.984 42.482 269.14 42.7251C269.301 42.9682 269.509 43.1723 269.766 43.3375C270.028 43.498 270.307 43.6333 270.605 43.7434C270.904 43.8489 271.19 43.9361 271.466 44.0049L272.842 44.3626C273.291 44.4727 273.752 44.6218 274.225 44.8099C274.697 44.9979 275.135 45.2456 275.539 45.5529C275.942 45.8603 276.268 46.241 276.516 46.6951C276.768 47.1492 276.894 47.6927 276.894 48.3257C276.894 49.1238 276.688 49.8325 276.275 50.4517C275.867 51.071 275.273 51.5595 274.493 51.9172C273.718 52.275 272.78 52.4539 271.679 52.4539C270.624 52.4539 269.711 52.2865 268.94 51.9516C268.17 51.6168 267.567 51.1421 267.131 50.5274C266.695 49.9082 266.454 49.1743 266.408 48.3257H268.541C268.583 48.8348 268.748 49.2591 269.037 49.5986C269.33 49.9334 269.704 50.1834 270.158 50.3485C270.617 50.5091 271.119 50.5893 271.665 50.5893C272.266 50.5893 272.8 50.4953 273.268 50.3072C273.741 50.1146 274.112 49.8486 274.383 49.5091C274.653 49.1651 274.789 48.7638 274.789 48.3051C274.789 47.8877 274.669 47.5459 274.431 47.2799C274.197 47.0139 273.878 46.7937 273.475 46.6194C273.076 46.4451 272.624 46.2914 272.119 46.1584L270.454 45.7043C269.326 45.397 268.431 44.9452 267.771 44.3489C267.115 43.7526 266.787 42.9636 266.787 41.982C266.787 41.1702 267.007 40.4615 267.447 39.856C267.888 39.2506 268.484 38.7804 269.236 38.4456C269.989 38.1061 270.837 37.9364 271.782 37.9364C272.736 37.9364 273.578 38.1038 274.307 38.4387C275.041 38.7735 275.619 39.2345 276.041 39.8216C276.463 40.4042 276.683 41.0738 276.701 41.8307H274.651ZM287.12 41.8307C287.047 41.1793 286.744 40.6748 286.212 40.317C285.68 39.9546 285.01 39.7735 284.203 39.7735C283.625 39.7735 283.125 39.8652 282.703 40.0487C282.281 40.2276 281.953 40.4753 281.719 40.7917C281.49 41.1037 281.375 41.4591 281.375 41.8582C281.375 42.193 281.453 42.482 281.609 42.7251C281.769 42.9682 281.978 43.1723 282.235 43.3375C282.496 43.498 282.776 43.6333 283.074 43.7434C283.373 43.8489 283.659 43.9361 283.934 44.0049L285.31 44.3626C285.76 44.4727 286.221 44.6218 286.693 44.8099C287.166 44.9979 287.604 45.2456 288.008 45.5529C288.411 45.8603 288.737 46.241 288.985 46.6951C289.237 47.1492 289.363 47.6927 289.363 48.3257C289.363 49.1238 289.157 49.8325 288.744 50.4517C288.336 51.071 287.742 51.5595 286.962 51.9172C286.187 52.275 285.249 52.4539 284.148 52.4539C283.093 52.4539 282.18 52.2865 281.409 51.9516C280.639 51.6168 280.036 51.1421 279.6 50.5274C279.164 49.9082 278.923 49.1743 278.877 48.3257H281.01C281.052 48.8348 281.217 49.2591 281.506 49.5986C281.799 49.9334 282.173 50.1834 282.627 50.3485C283.086 50.5091 283.588 50.5893 284.134 50.5893C284.735 50.5893 285.269 50.4953 285.737 50.3072C286.209 50.1146 286.581 49.8486 286.852 49.5091C287.122 49.1651 287.258 48.7638 287.258 48.3051C287.258 47.8877 287.138 47.5459 286.9 47.2799C286.666 47.0139 286.347 46.7937 285.943 46.6194C285.544 46.4451 285.093 46.2914 284.588 46.1584L282.923 45.7043C281.795 45.397 280.9 44.9452 280.24 44.3489C279.584 43.7526 279.256 42.9636 279.256 41.982C279.256 41.1702 279.476 40.4615 279.916 39.856C280.357 39.2506 280.953 38.7804 281.705 38.4456C282.457 38.1061 283.306 37.9364 284.251 37.9364C285.205 37.9364 286.047 38.1038 286.776 38.4387C287.51 38.7735 288.088 39.2345 288.51 39.8216C288.932 40.4042 289.152 41.0738 289.17 41.8307H287.12ZM294.03 38.1291V52.22H291.904V38.1291H294.03ZM308.829 42.7114H306.682C306.6 42.2527 306.446 41.849 306.222 41.5004C305.997 41.1518 305.722 40.856 305.396 40.6129C305.07 40.3698 304.706 40.1863 304.302 40.0624C303.903 39.9386 303.479 39.8767 303.029 39.8767C302.217 39.8767 301.49 40.0808 300.848 40.489C300.21 40.8972 299.706 41.4958 299.334 42.2848C298.967 43.0737 298.784 44.037 298.784 45.1745C298.784 46.3212 298.967 47.2891 299.334 48.078C299.706 48.867 300.213 49.4633 300.855 49.8669C301.497 50.2705 302.219 50.4724 303.022 50.4724C303.467 50.4724 303.889 50.4127 304.288 50.2935C304.692 50.1696 305.056 49.9885 305.382 49.7499C305.708 49.5114 305.983 49.2201 306.208 48.8761C306.437 48.5275 306.595 48.1285 306.682 47.679L308.829 47.6858C308.714 48.3785 308.492 49.016 308.162 49.5986C307.836 50.1765 307.416 50.6765 306.903 51.0985C306.394 51.5159 305.811 51.8393 305.155 52.0686C304.499 52.2979 303.784 52.4126 303.008 52.4126C301.788 52.4126 300.701 52.1236 299.747 51.5457C298.793 50.9632 298.041 50.1306 297.49 49.0481C296.945 47.9656 296.672 46.6744 296.672 45.1745C296.672 43.67 296.947 42.3788 297.497 41.3009C298.048 40.2184 298.8 39.3882 299.754 38.8102C300.708 38.2277 301.793 37.9364 303.008 37.9364C303.756 37.9364 304.453 38.0442 305.1 38.2598C305.751 38.4708 306.336 38.7827 306.854 39.1955C307.373 39.6037 307.802 40.1037 308.141 40.6954C308.481 41.2825 308.71 41.9545 308.829 42.7114ZM97.5481 76.22V62.1291H106.286V63.9592H99.6741V68.2526H105.66V70.0758H99.6741V76.22H97.5481ZM121.141 69.1745C121.141 70.679 120.866 71.9725 120.315 73.055C119.765 74.1329 119.01 74.9632 118.051 75.5457C117.097 76.1236 116.013 76.4126 114.797 76.4126C113.577 76.4126 112.488 76.1236 111.529 75.5457C110.575 74.9632 109.823 74.1306 109.272 73.0481C108.722 71.9656 108.447 70.6744 108.447 69.1745C108.447 67.67 108.722 66.3788 109.272 65.3009C109.823 64.2184 110.575 63.3882 111.529 62.8102C112.488 62.2277 113.577 61.9364 114.797 61.9364C116.013 61.9364 117.097 62.2277 118.051 62.8102C119.01 63.3882 119.765 64.2184 120.315 65.3009C120.866 66.3788 121.141 67.67 121.141 69.1745ZM119.035 69.1745C119.035 68.0278 118.85 67.0623 118.478 66.2779C118.111 65.489 117.607 64.8927 116.964 64.489C116.327 64.0808 115.604 63.8767 114.797 63.8767C113.985 63.8767 113.26 64.0808 112.623 64.489C111.985 64.8927 111.481 65.489 111.109 66.2779C110.742 67.0623 110.559 68.0278 110.559 69.1745C110.559 70.3212 110.742 71.2891 111.109 72.078C111.481 72.8624 111.985 73.4587 112.623 73.8669C113.26 74.2705 113.985 74.4724 114.797 74.4724C115.604 74.4724 116.327 74.2705 116.964 73.8669C117.607 73.4587 118.111 72.8624 118.478 72.078C118.85 71.2891 119.035 70.3212 119.035 69.1745ZM123.791 76.22V62.1291H128.814C129.906 62.1291 130.812 62.3171 131.532 62.6932C132.256 63.0694 132.798 63.59 133.155 64.2551C133.513 64.9156 133.692 65.6793 133.692 66.5462C133.692 67.4086 133.511 68.1677 133.149 68.8236C132.791 69.475 132.25 69.9818 131.525 70.3442C130.805 70.7065 129.899 70.8877 128.807 70.8877H125.002V69.0576H128.614C129.303 69.0576 129.862 68.9589 130.293 68.7617C130.729 68.5645 131.048 68.2778 131.25 67.9017C131.451 67.5255 131.552 67.0737 131.552 66.5462C131.552 66.0142 131.449 65.5532 131.243 65.1633C131.041 64.7734 130.722 64.4753 130.286 64.2688C129.855 64.0578 129.289 63.9523 128.587 63.9523H125.917V76.22H123.791ZM130.747 69.8625L134.229 76.22H131.807L128.394 69.8625H130.747ZM140.712 63.9592V62.1291H151.617V63.9592H147.221V76.22H145.101V63.9592H140.712ZM154.027 76.22V62.1291H156.153V68.2526H163.178V62.1291H165.311V76.22H163.178V70.0758H156.153V76.22H154.027ZM168.407 76.22V62.1291H177.241V63.9592H170.533V68.2526H176.78V70.0758H170.533V74.3898H177.324V76.22H168.407ZM196.582 62.1291V76.22H194.628L187.465 65.8857H187.335V76.22H185.209V62.1291H187.176L194.346 72.4771H194.476V62.1291H196.582ZM199.683 76.22V62.1291H208.517V63.9592H201.809V68.2526H208.056V70.0758H201.809V74.3898H208.6V76.22H199.683ZM214.116 76.22L210.208 62.1291H212.444L215.19 73.0413H215.32L218.176 62.1291H220.391L223.246 73.0481H223.377L226.116 62.1291H228.359L224.444 76.22H222.304L219.338 65.6655H219.228L216.263 76.22H214.116ZM243.11 65.8307C243.037 65.1793 242.734 64.6748 242.202 64.317C241.67 63.9546 241 63.7735 240.193 63.7735C239.615 63.7735 239.115 63.8652 238.693 64.0487C238.271 64.2276 237.943 64.4753 237.709 64.7917C237.48 65.1037 237.365 65.4591 237.365 65.8582C237.365 66.193 237.443 66.482 237.599 66.7251C237.759 66.9682 237.968 67.1723 238.225 67.3375C238.486 67.498 238.766 67.6333 239.064 67.7434C239.363 67.8489 239.649 67.9361 239.924 68.0049L241.3 68.3626C241.75 68.4727 242.211 68.6218 242.683 68.8099C243.156 68.9979 243.594 69.2456 243.998 69.5529C244.401 69.8603 244.727 70.241 244.975 70.6951C245.227 71.1492 245.353 71.6927 245.353 72.3257C245.353 73.1238 245.147 73.8325 244.734 74.4517C244.326 75.071 243.732 75.5595 242.952 75.9172C242.177 76.275 241.239 76.4539 240.138 76.4539C239.083 76.4539 238.17 76.2865 237.399 75.9516C236.629 75.6168 236.026 75.1421 235.59 74.5274C235.154 73.9082 234.913 73.1743 234.867 72.3257H237C237.042 72.8348 237.207 73.2591 237.496 73.5986C237.789 73.9334 238.163 74.1834 238.617 74.3485C239.076 74.5091 239.578 74.5893 240.124 74.5893C240.725 74.5893 241.259 74.4953 241.727 74.3072C242.199 74.1146 242.571 73.8486 242.842 73.5091C243.112 73.1651 243.248 72.7638 243.248 72.3051C243.248 71.8877 243.128 71.5459 242.89 71.2799C242.656 71.0139 242.337 70.7937 241.933 70.6194C241.534 70.4451 241.083 70.2914 240.578 70.1584L238.913 69.7043C237.785 69.397 236.89 68.9452 236.23 68.3489C235.574 67.7526 235.246 66.9636 235.246 65.982C235.246 65.1702 235.466 64.4615 235.906 63.856C236.347 63.2506 236.943 62.7804 237.695 62.4456C238.447 62.1061 239.296 61.9364 240.241 61.9364C241.195 61.9364 242.037 62.1038 242.766 62.4387C243.5 62.7735 244.078 63.2345 244.5 63.8216C244.922 64.4042 245.142 65.0738 245.16 65.8307H243.11ZM247.894 76.22V62.1291H256.728V63.9592H250.02V68.2526H256.267V70.0758H250.02V74.3898H256.81V76.22H247.894ZM260.758 76.22H258.501L263.572 62.1291H266.028L271.099 76.22H268.842L264.859 64.6885H264.749L260.758 76.22ZM261.136 70.7019H268.457V72.4908H261.136V70.7019ZM280.706 65.8307C280.632 65.1793 280.33 64.6748 279.798 64.317C279.266 63.9546 278.596 63.7735 277.789 63.7735C277.211 63.7735 276.711 63.8652 276.289 64.0487C275.867 64.2276 275.539 64.4753 275.305 64.7917C275.075 65.1037 274.961 65.4591 274.961 65.8582C274.961 66.193 275.039 66.482 275.195 66.7251C275.355 66.9682 275.564 67.1723 275.821 67.3375C276.082 67.498 276.362 67.6333 276.66 67.7434C276.958 67.8489 277.245 67.9361 277.52 68.0049L278.896 68.3626C279.346 68.4727 279.807 68.6218 280.279 68.8099C280.752 68.9979 281.19 69.2456 281.593 69.5529C281.997 69.8603 282.323 70.241 282.57 70.6951C282.823 71.1492 282.949 71.6927 282.949 72.3257C282.949 73.1238 282.742 73.8325 282.33 74.4517C281.921 75.071 281.327 75.5595 280.548 75.9172C279.772 76.275 278.834 76.4539 277.734 76.4539C276.679 76.4539 275.766 76.2865 274.995 75.9516C274.225 75.6168 273.621 75.1421 273.186 74.5274C272.75 73.9082 272.509 73.1743 272.463 72.3257H274.596C274.637 72.8348 274.802 73.2591 275.091 73.5986C275.385 73.9334 275.759 74.1834 276.213 74.3485C276.672 74.5091 277.174 74.5893 277.72 74.5893C278.321 74.5893 278.855 74.4953 279.323 74.3072C279.795 74.1146 280.167 73.8486 280.437 73.5091C280.708 73.1651 280.843 72.7638 280.843 72.3051C280.843 71.8877 280.724 71.5459 280.486 71.2799C280.252 71.0139 279.933 70.7937 279.529 70.6194C279.13 70.4451 278.678 70.2914 278.174 70.1584L276.509 69.7043C275.38 69.397 274.486 68.9452 273.825 68.3489C273.17 67.7526 272.842 66.9636 272.842 65.982C272.842 65.1702 273.062 64.4615 273.502 63.856C273.942 63.2506 274.539 62.7804 275.291 62.4456C276.043 62.1061 276.892 61.9364 277.837 61.9364C278.791 61.9364 279.632 62.1038 280.362 62.4387C281.096 62.7735 281.674 63.2345 282.096 63.8216C282.518 64.4042 282.738 65.0738 282.756 65.8307H280.706ZM297.729 69.1745C297.729 70.679 297.454 71.9725 296.904 73.055C296.353 74.1329 295.599 74.9632 294.64 75.5457C293.686 76.1236 292.601 76.4126 291.386 76.4126C290.166 76.4126 289.076 76.1236 288.118 75.5457C287.164 74.9632 286.411 74.1306 285.861 73.0481C285.31 71.9656 285.035 70.6744 285.035 69.1745C285.035 67.67 285.31 66.3788 285.861 65.3009C286.411 64.2184 287.164 63.3882 288.118 62.8102C289.076 62.2277 290.166 61.9364 291.386 61.9364C292.601 61.9364 293.686 62.2277 294.64 62.8102C295.599 63.3882 296.353 64.2184 296.904 65.3009C297.454 66.3788 297.729 67.67 297.729 69.1745ZM295.624 69.1745C295.624 68.0278 295.438 67.0623 295.067 66.2779C294.7 65.489 294.195 64.8927 293.553 64.489C292.916 64.0808 292.193 63.8767 291.386 63.8767C290.574 63.8767 289.849 64.0808 289.212 64.489C288.574 64.8927 288.069 65.489 287.698 66.2779C287.331 67.0623 287.148 68.0278 287.148 69.1745C287.148 70.3212 287.331 71.2891 287.698 72.078C288.069 72.8624 288.574 73.4587 289.212 73.8669C289.849 74.2705 290.574 74.4724 291.386 74.4724C292.193 74.4724 292.916 74.2705 293.553 73.8669C294.195 73.4587 294.7 72.8624 295.067 72.078C295.438 71.2891 295.624 70.3212 295.624 69.1745ZM311.753 62.1291V76.22H309.799L302.637 65.8857H302.506V76.22H300.38V62.1291H302.348L309.517 72.4771H309.648V62.1291H311.753Z" fill="black"/>
</svg>
