<svg width="401" height="43" viewBox="0 0 401 43" fill="none" xmlns="http://www.w3.org/2000/svg">
<path d="M37.283 37.2762L0.97998 0.973181V0.609985H400.98V0.973181L364.677 37.2762C357.113 44.8409 344.847 44.8409 337.283 37.2762L314.677 14.6701C307.113 7.10553 294.847 7.10553 287.283 14.6701L264.677 37.2762C257.113 44.8409 244.847 44.8409 237.283 37.2762L214.677 14.6701C207.113 7.10553 194.847 7.10553 187.283 14.6701L164.677 37.2762C157.113 44.8409 144.847 44.8409 137.283 37.2762L114.677 14.6701C107.113 7.10553 94.8477 7.10553 87.283 14.6701L64.6769 37.2762C57.1123 44.8409 44.8477 44.8409 37.283 37.2762Z" fill="#FFFAF3"/>
</svg>
