<svg width="199" height="199" viewBox="0 0 199 199" fill="none" xmlns="http://www.w3.org/2000/svg">
<path d="M105.84 98.535C106.809 99.1288 106.809 100.535 105.84 101.129L94.84 107.629C93.84 108.223 92.59 107.504 92.59 106.316V93.3163C92.59 92.035 93.9338 91.5038 94.84 92.035L105.84 98.535Z" fill="#444444"/>
<path d="M107.009 48.0429L109.794 37.1948L111.623 37.6643L113.414 45.9376L118.969 39.5504L120.813 40.0239L118.028 50.872L116.478 50.4741L118.567 42.338L113.505 48.092L112.312 47.7856L110.644 40.3203L108.559 48.4409L107.009 48.0429Z" fill="black"/>
<path d="M124.536 54.4091C123.592 53.8901 122.876 53.2224 122.387 52.4061C121.904 51.5805 121.665 50.676 121.67 49.6928C121.689 48.7054 121.976 47.7069 122.531 46.6974C123.081 45.6972 123.765 44.9291 124.583 44.3929C125.416 43.8525 126.31 43.5652 127.266 43.5309C128.223 43.4966 129.173 43.739 130.117 44.258C131.08 44.7873 131.803 45.4647 132.286 46.2904C132.779 47.1212 133.011 48.0277 132.982 49.01C132.968 49.9881 132.685 50.9773 132.136 51.9774C131.581 52.9869 130.891 53.7644 130.068 54.3099C129.259 54.8512 128.372 55.1365 127.407 55.1656C126.456 55.1906 125.499 54.9384 124.536 54.4091ZM125.236 53.169C125.909 53.5389 126.583 53.7085 127.257 53.6775C127.941 53.6517 128.575 53.4282 129.159 53.007C129.753 52.591 130.269 51.9857 130.705 51.1912C131.142 50.3967 131.377 49.6372 131.41 48.9129C131.453 48.1937 131.299 47.5432 130.949 46.9615C130.614 46.3755 130.11 45.8976 129.437 45.5276C128.764 45.1576 128.086 44.9855 127.402 45.0113C126.733 45.033 126.101 45.2518 125.507 45.6678C124.914 46.0838 124.398 46.6891 123.961 47.4836C123.525 48.2781 123.29 49.0376 123.257 49.7619C123.224 50.4862 123.375 51.1414 123.71 51.7273C124.054 52.3184 124.563 52.799 125.236 53.169Z" fill="black"/>
<path d="M132.507 59.3998L140.173 51.2354L142.938 53.8312C143.583 54.4372 144.01 55.0426 144.217 55.6473C144.425 56.2521 144.454 56.8284 144.306 57.3764C144.172 57.9239 143.89 58.4271 143.459 58.8859C143.05 59.3213 142.569 59.6307 142.016 59.8141C141.471 59.9897 140.883 59.9931 140.251 59.8243C139.634 59.655 139 59.2637 138.346 58.6503L136.783 57.1827L133.673 60.4951L132.507 59.3998ZM136.787 63.4195L138.444 58.1492L139.727 59.354L138.152 64.701L136.787 63.4195ZM137.616 56.2963L139.132 57.7201C139.708 58.2604 140.263 58.5184 140.798 58.4941C141.34 58.4619 141.819 58.2243 142.236 57.781C142.659 57.3301 142.863 56.8482 142.847 56.3356C142.831 55.823 142.523 55.2855 141.924 54.7233L140.42 53.3104L137.616 56.2963Z" fill="black"/>
<path d="M141.672 69.074L151.129 63.0727L154.909 69.0303L153.802 69.7333L150.878 65.1267L147.852 67.0471L150.518 71.2484L149.438 71.9343L146.771 67.7329L143.637 69.7219L146.561 74.3286L145.453 75.0316L141.672 69.074Z" fill="black"/>
<path d="M151.318 96.8644C151.249 95.7679 151.429 94.8054 151.858 93.9768C152.297 93.1476 152.934 92.4876 153.769 91.9969C154.615 91.5161 155.613 91.2396 156.763 91.1673C157.902 91.0956 158.921 91.2452 159.821 91.6161C160.721 91.9977 161.436 92.5726 161.966 93.3409C162.505 94.1085 162.81 95.0405 162.879 96.137C162.961 97.4358 162.713 98.5148 162.137 99.374C161.56 100.233 160.709 100.805 159.583 101.09L159.474 99.3492C160.123 99.1373 160.629 98.7688 160.991 98.2437C161.355 97.7292 161.51 97.0515 161.457 96.2105C161.41 95.4653 161.193 94.8216 160.806 94.2795C160.42 93.748 159.893 93.3537 159.225 93.0965C158.557 92.8392 157.77 92.7391 156.865 92.796C155.96 92.853 155.187 93.0512 154.546 93.3908C153.915 93.7298 153.442 94.1871 153.125 94.7627C152.82 95.3484 152.691 96.0138 152.738 96.759C152.791 97.6 153.019 98.2536 153.422 98.7199C153.837 99.1961 154.374 99.4937 155.034 99.6125L155.144 101.369C154.024 101.226 153.124 100.764 152.444 99.9838C151.775 99.203 151.399 98.1632 151.318 96.8644Z" fill="black"/>
<path d="M150.487 109.507C150.689 108.449 151.103 107.561 151.728 106.845C152.364 106.13 153.151 105.623 154.087 105.324C155.032 105.037 156.071 105.002 157.202 105.217C158.323 105.431 159.265 105.844 160.028 106.457C160.799 107.082 161.349 107.844 161.677 108.742C162.005 109.641 162.068 110.62 161.866 111.678C161.66 112.757 161.24 113.654 160.604 114.369C159.966 115.094 159.175 115.595 158.232 115.871C157.298 116.16 156.27 116.197 155.149 115.983C154.017 115.767 153.065 115.352 152.291 114.738C151.527 114.136 150.981 113.38 150.655 112.471C150.337 111.574 150.282 110.586 150.487 109.507ZM151.883 109.79C151.739 110.544 151.786 111.237 152.024 111.869C152.26 112.511 152.668 113.045 153.25 113.471C153.829 113.907 154.564 114.21 155.454 114.38C156.345 114.55 157.14 114.539 157.839 114.346C158.536 114.164 159.107 113.817 159.552 113.305C160.006 112.805 160.305 112.178 160.449 111.424C160.593 110.669 160.547 109.971 160.311 109.329C160.084 108.699 159.68 108.166 159.101 107.73C158.522 107.293 157.787 106.99 156.896 106.82C156.006 106.651 155.211 106.662 154.512 106.854C153.813 107.047 153.236 107.393 152.783 107.893C152.327 108.403 152.027 109.035 151.883 109.79Z" fill="black"/>
<path d="M147.975 119.141L158.109 123.91L157.428 125.358L148.437 121.127L146.257 125.76L145.114 125.222L147.975 119.141Z" fill="black"/>
<path d="M141.651 130.563L150.281 137.702L149.261 138.935L141.605 132.601L138.342 136.546L137.368 135.741L141.651 130.563Z" fill="black"/>
<path d="M132.917 139.885L139.5 148.946L133.791 153.094L133.02 152.032L137.434 148.825L135.328 145.926L131.302 148.851L130.55 147.815L134.575 144.89L132.393 141.887L127.979 145.094L127.208 144.033L132.917 139.885Z" fill="black"/>
<path d="M118.388 148.102C119.409 147.697 120.38 147.571 121.301 147.723C122.225 147.885 123.05 148.287 123.775 148.929C124.493 149.585 125.065 150.449 125.489 151.52C125.909 152.581 126.082 153.597 126.007 154.567C125.922 155.541 125.596 156.399 125.029 157.14C124.466 157.89 123.674 158.468 122.652 158.872C121.442 159.351 120.34 159.449 119.344 159.167C118.349 158.884 117.542 158.251 116.924 157.269L118.545 156.627C118.947 157.179 119.454 157.546 120.065 157.728C120.667 157.915 121.359 157.853 122.143 157.542C122.837 157.268 123.382 156.862 123.778 156.327C124.165 155.796 124.377 155.172 124.415 154.457C124.453 153.743 124.305 152.964 123.971 152.121C123.638 151.278 123.21 150.604 122.689 150.099C122.172 149.604 121.591 149.295 120.945 149.171C120.294 149.062 119.621 149.145 118.927 149.42C118.144 149.73 117.592 150.149 117.274 150.677C116.949 151.218 116.832 151.821 116.923 152.485L115.286 153.133C115.076 152.023 115.237 151.024 115.769 150.137C116.305 149.259 117.178 148.581 118.388 148.102Z" fill="black"/>
<path d="M106.906 151.312L108.145 161.122L111.431 160.707L111.596 162.008L103.421 163.041L103.256 161.739L106.558 161.322L105.319 151.512L106.906 151.312Z" fill="black"/>
<path d="M93.8611 151.514L92.4574 162.626L90.87 162.425L92.2738 151.313L93.8611 151.514Z" fill="black"/>
<path d="M80.5387 147.999C81.5404 148.396 82.3347 148.969 82.9216 149.717C83.5047 150.476 83.8553 151.343 83.9736 152.319C84.0781 153.301 83.9183 154.328 83.4942 155.399C83.0741 156.46 82.4917 157.308 81.7472 157.943C80.9889 158.583 80.1375 158.98 79.1933 159.134C78.249 159.288 77.276 159.166 76.2743 158.77C75.2528 158.365 74.4505 157.784 73.8675 157.025C73.2746 156.263 72.9308 155.393 72.8363 154.414C72.7279 153.442 72.8837 152.426 73.3039 151.364C73.728 150.293 74.3142 149.436 75.0627 148.791C75.7973 148.153 76.6417 147.759 77.5959 147.609C78.5362 147.465 79.5172 147.595 80.5387 147.999ZM79.9996 149.317C79.2855 149.035 78.5959 148.951 77.9308 149.066C77.2557 149.178 76.6547 149.479 76.1275 149.97C75.5905 150.457 75.155 151.122 74.8213 151.965C74.4875 152.808 74.3496 153.591 74.4076 154.314C74.4557 155.033 74.6897 155.659 75.1095 156.192C75.5155 156.731 76.0755 157.142 76.7895 157.425C77.5036 157.708 78.1982 157.794 78.8732 157.682C79.5344 157.577 80.1336 157.281 80.6706 156.793C81.2077 156.306 81.6431 155.641 81.9768 154.798C82.3106 153.955 82.4485 153.172 82.3905 152.45C82.3325 151.727 82.1005 151.096 81.6945 150.556C81.2786 150.013 80.7137 149.6 79.9996 149.317Z" fill="black"/>
<path d="M72.6279 144.504L66.0447 153.565L64.7503 152.624L65.1794 142.316L60.1292 149.267L58.8347 148.326L65.4179 139.265L66.7123 140.206L66.2926 150.501L71.3335 143.563L72.6279 144.504Z" fill="black"/>
<path d="M53.9927 125.046L43.8586 129.815L40.8544 123.431L42.0415 122.872L44.3645 127.809L47.6074 126.283L45.4888 121.78L46.6469 121.235L48.7656 125.738L52.1243 124.157L49.8013 119.221L50.9884 118.662L53.9927 125.046Z" fill="black"/>
<path d="M49.3395 113.888L43.1282 111.554L38.3408 116.002L37.9991 114.211L41.682 110.804L37.0307 109.134L36.6949 107.374L42.8403 109.704L47.6875 105.228L48.0293 107.02L44.2895 110.47L49.0007 112.112L49.3395 113.888Z" fill="black"/>
<path d="M47.4763 100.108L36.2984 99.4043L36.5385 95.5878C36.5941 94.7042 36.789 93.9844 37.1233 93.4283C37.4469 92.8715 37.8729 92.4708 38.4013 92.2261C38.9197 91.9702 39.493 91.862 40.1211 91.9015C40.7385 91.9403 41.294 92.1142 41.7876 92.4232C42.2712 92.7208 42.6493 93.1667 42.9218 93.761C43.1837 94.3546 43.2862 95.1039 43.2293 96.0088L43.0896 98.2284L47.5768 98.5107L47.4763 100.108ZM41.7643 98.145L41.8999 95.9893C41.9521 95.1589 41.8083 94.5567 41.4685 94.1826C41.1187 93.7972 40.635 93.5851 40.0176 93.5462C39.3788 93.5061 38.8724 93.6559 38.4984 93.9957C38.1249 94.3249 37.9121 94.9047 37.8599 95.7351L37.7243 97.8908L41.7643 98.145Z" fill="black"/>
<path d="M49.1767 86.7202L38.5248 83.2592L39.0192 81.7375L48.4689 84.8079L50.0511 79.9385L51.2532 80.3291L49.1767 86.7202Z" fill="black"/>
<path d="M55.8391 72.075C55.2618 72.9847 54.5505 73.6576 53.7051 74.0939C52.8507 74.5244 51.9331 74.7064 50.9521 74.6397C49.9678 74.5583 48.9893 74.209 48.0167 73.5917C47.053 72.9801 46.3293 72.2492 45.8456 71.399C45.3586 70.5341 45.128 69.6234 45.1538 68.667C45.1796 67.7106 45.4811 66.7776 46.0584 65.868C46.6471 64.9404 47.3686 64.2613 48.223 63.8307C49.0831 63.3911 50.0024 63.2166 50.981 63.307C51.9562 63.3827 52.9257 63.7263 53.8893 64.3379C54.862 64.9551 55.5947 65.6917 56.0875 66.5477C56.5769 67.3889 56.8059 68.2922 56.7743 69.2576C56.7395 70.2082 56.4278 71.1474 55.8391 72.075ZM54.6453 71.2985C55.0568 70.6501 55.2683 69.9884 55.2797 69.3134C55.2969 68.6295 55.1137 67.9826 54.73 67.3728C54.3521 66.7539 53.7804 66.2016 53.0149 65.7158C52.2493 65.23 51.5062 64.9478 50.7853 64.8694C50.0702 64.7819 49.4114 64.8944 48.8088 65.2068C48.203 65.5046 47.6943 65.9777 47.2828 66.6261C46.8713 67.2745 46.6569 67.9407 46.6398 68.6247C46.6193 69.2939 46.7981 69.9379 47.176 70.5568C47.5539 71.1756 48.1256 71.7279 48.8911 72.2137C49.6567 72.6996 50.3999 72.9817 51.1207 73.0602C51.8415 73.1386 52.5049 73.029 53.1107 72.7313C53.7223 72.4245 54.2338 71.9469 54.6453 71.2985Z" fill="black"/>
<path d="M61.3165 64.4292L53.6496 56.2647L56.4138 53.6689C57.0592 53.0629 57.6902 52.6752 58.3067 52.5059C58.9233 52.3366 59.5004 52.3434 60.0379 52.5264C60.576 52.6942 61.0604 53.0075 61.4912 53.4663C61.9001 53.9017 62.1788 54.401 62.3271 54.964C62.4681 55.5193 62.4345 56.1069 62.2264 56.7267C62.0187 57.3314 61.5883 57.9404 60.9352 58.5538L59.3723 60.0215L62.4829 63.3339L61.3165 64.4292ZM65.597 60.4095L60.4412 58.4251L61.7242 57.2203L66.9616 59.128L65.597 60.4095ZM58.5399 59.135L60.0561 57.7112C60.6315 57.1708 60.9239 56.6329 60.9331 56.0974C60.9351 55.5542 60.728 55.0609 60.3118 54.6177C59.8883 54.1667 59.4202 53.9332 58.9076 53.9171C58.395 53.901 57.8393 54.174 57.2405 54.7363L55.736 56.1492L58.5399 59.135Z" fill="black"/>
<path d="M71.5539 55.9004L66.1582 46.0857L72.3414 42.6865L72.9735 43.8362L68.1924 46.4646L69.919 49.6053L74.2795 47.2081L74.8961 48.3298L70.5356 50.727L72.3239 53.9799L77.105 51.3514L77.7371 52.5011L71.5539 55.9004Z" fill="black"/>
</svg>
